<svg width="1920" height="1080" viewBox="0 0 1920 1080" fill="none" xmlns="http://www.w3.org/2000/svg">
<rect width="960" height="1080" fill="#ABA890"/>
<rect x="960" width="960" height="1080" fill="#D9D9D9"/>
<ellipse cx="737" cy="309" rx="307" ry="481" fill="#ABA890"/>
<ellipse cx="737" cy="309" rx="307" ry="481" fill="#ABA890"/>
<ellipse cx="1094" cy="856" rx="199" ry="326" fill="#D9D9D9"/>
<g filter="url(#filter0_i_41_213)">
<circle cx="1640" cy="193" r="20" fill="#ABA890"/>
</g>
<g filter="url(#filter1_i_41_213)">
<circle cx="105" cy="997" r="20" fill="#D9D9D9"/>
</g>
<g filter="url(#filter2_i_41_213)">
<circle cx="517" cy="895" r="20" fill="#D9D9D9"/>
</g>
<g filter="url(#filter3_i_41_213)">
<circle cx="298" cy="193" r="20" fill="#D9D9D9"/>
</g>
<g filter="url(#filter4_i_41_213)">
<circle cx="1403" cy="895" r="20" fill="#ABA890"/>
</g>
<g filter="url(#filter5_i_41_213)">
<circle cx="1873" cy="997" r="20" fill="#ABA890"/>
</g>
<path d="M334.39 265.751C334.945 269.894 337.079 271.667 340.794 271.069C343.729 270.588 345.512 270.348 346.141 270.348C347.966 270.369 349.792 270.412 351.617 270.476C353.858 270.551 356.596 270.466 359.83 270.22C368.22 269.601 376.15 270.444 383.622 272.751C384.603 273.06 385.511 273.519 386.343 274.128C388.083 275.399 389.209 275.239 389.721 273.648" stroke="#343838" stroke-opacity="0.996" stroke-width="2"/>
<path d="M365.418 322.148L365.274 323.894" stroke="#1B1D1D" stroke-opacity="0.769" stroke-width="2"/>
<path d="M234.854 320.354C236.455 319.372 236.988 317.994 236.455 316.222" stroke="#535453" stroke-opacity="0.996" stroke-width="2"/>
<path d="M206.435 283.787C207.513 284.16 208.234 283.957 208.596 283.178C210.123 279.964 212.348 277.679 215.273 276.323C217.13 275.447 220.113 275.041 224.223 275.105C232.27 275.233 240.313 275.372 248.35 275.522C248.756 275.532 249.257 275.676 249.855 275.954L253.666 277.78" stroke="#343838" stroke-opacity="0.996" stroke-width="2"/>
<path d="M224.511 303.071C230.509 304.193 236.193 303.36 241.562 300.573C243.568 299.526 244.801 297.935 245.26 295.8" stroke="#535453" stroke-opacity="0.996" stroke-width="2"/>
<path d="M255.667 277.908C257.556 277.567 258.81 276.531 259.429 274.801" stroke="#343838" stroke-opacity="0.996" stroke-width="2"/>
<path d="M230.851 320.755C230.189 320.424 229.901 319.868 229.986 319.089" stroke="#515353" stroke-opacity="0.863" stroke-width="2"/>
<path d="M239.657 326.361C240.073 327.055 240.206 327.813 240.057 328.635" stroke="#1B1D1D" stroke-opacity="0.769" stroke-width="2"/>
<path d="M428.179 957.843C427.976 959.648 428.664 960.267 430.244 959.701C430.469 959.618 430.671 959.473 430.831 959.28C430.99 959.086 431.102 958.851 431.157 958.596C431.744 955.638 431.039 955.099 429.043 956.978" stroke="#343838" stroke-opacity="0.996" stroke-width="2"/>
<path d="M337.784 286.253C335.778 288.175 333.376 289.243 330.58 289.457" stroke="#424342" stroke-opacity="0.996" stroke-width="2"/>
<path d="M273.038 286.093C270.968 289.318 268.118 291.454 264.489 292.5" stroke="#424342" stroke-opacity="0.996" stroke-width="2"/>
<path d="M311.303 296.328C310.108 297.844 308.507 298.645 306.5 298.731" stroke="#232727" stroke-opacity="0.996" stroke-width="2"/>
<path d="M305.635 315.084C311.591 313.312 312.712 310.146 308.997 305.586" stroke="#232727" stroke-opacity="0.996" stroke-width="2"/>
<path d="M340.922 503.224C339.556 503.768 339.155 504.836 339.721 506.427" stroke="#343838" stroke-opacity="0.996" stroke-width="2"/>
<path d="M342.987 511.697L349.455 507.388" stroke="#343838" stroke-opacity="0.996" stroke-width="2"/>
<path d="M372.943 598.927C373.06 599.771 372.81 600.438 372.19 600.929C371.796 601.239 371.182 601.357 370.349 601.282C365.77 600.823 361.602 601.693 357.845 603.893" stroke="#4C4D4A" stroke-opacity="0.996" stroke-width="2"/>
<path d="M253.073 599.312C250.277 602.803 247.673 604.699 245.26 604.998C240.222 605.617 236.508 606.685 234.117 608.201" stroke="#565755" stroke-opacity="0.996" stroke-width="2"/>
<path d="M334.39 265.751C334.945 269.894 337.08 271.667 340.794 271.069C343.73 270.588 345.512 270.348 346.142 270.348C347.967 270.369 349.792 270.412 351.617 270.476C353.859 270.551 356.597 270.466 359.831 270.22C368.22 269.601 376.151 270.444 383.622 272.751C384.604 273.06 385.511 273.519 386.344 274.128C388.084 275.399 389.21 275.239 389.722 273.648C391.334 278.784 391.003 283.301 388.729 287.198C388.164 288.181 387.641 289.179 387.16 290.194C386.605 291.357 385.976 292.281 385.271 292.965C378.12 299.969 369.496 302.239 359.398 299.772C359.305 299.75 359.208 299.749 359.114 299.769C359.02 299.79 358.933 299.831 358.859 299.89C358.784 299.949 358.725 300.024 358.685 300.109C358.646 300.194 358.627 300.287 358.63 300.381C358.705 303.915 359.585 307.268 361.272 310.439C361.474 310.822 361.795 311.129 362.184 311.314C362.574 311.499 363.012 311.551 363.433 311.465C364.756 311.187 365.984 311.267 367.115 311.705C369.207 312.538 370.291 312.965 370.365 312.986C377.954 314.759 385.453 316.873 392.86 319.329C393.063 319.393 393.404 319.462 393.885 319.537C394.739 319.676 394.637 320.039 393.58 320.626C393.146 320.864 392.608 320.938 392.059 320.835C385.933 319.575 380.527 318.026 375.841 316.19C371.476 314.46 367.142 313.766 362.841 314.107C362.61 314.126 362.395 314.227 362.235 314.389C362.076 314.552 361.984 314.765 361.976 314.988C361.816 318.096 362.963 320.482 365.418 322.148L365.274 323.894C364.847 326.435 365.706 329.783 367.852 333.937C368.015 334.26 368.264 334.531 368.572 334.721C368.881 334.91 369.235 335.01 369.597 335.01C370.312 335.01 370.798 335.282 371.054 335.827C371.289 336.339 371.086 336.542 370.446 336.436C368.439 336.104 367.846 336.921 368.668 338.886C369.138 339.975 369.437 340.755 369.565 341.225C372.511 352.341 376.433 363.099 381.333 373.5C381.962 374.824 381.813 375.918 380.884 376.783C380.443 377.183 380.162 377.631 380.1 378.032C379.908 379.527 380.1 380.921 380.676 382.213C381.551 384.167 382.048 385.416 382.165 385.961C383.318 391.567 384.545 397.162 385.847 402.747C387.022 407.777 388.836 413.18 391.291 418.957C394.888 427.446 398.165 435.967 401.121 444.52C401.57 445.812 402.167 447.035 402.915 448.188C404.462 450.559 404.868 452.668 404.131 454.515C403.779 455.388 403.728 456.352 403.987 457.254C407.115 468.103 409.836 478.344 412.153 487.975C413.903 495.269 416.006 502.674 418.461 510.191C418.6 510.607 418.603 511.055 418.471 511.473C418.339 511.89 418.077 512.255 417.724 512.514C415.782 513.966 415.066 515.579 415.579 517.351C418.738 528.328 421.641 539.37 424.288 550.475C424.343 550.698 424.34 550.937 424.279 551.174C424.218 551.41 424.1 551.637 423.936 551.836C422.933 553.054 422.613 554.223 422.976 555.344C426.38 566.044 427.848 578.19 427.378 591.784C427.176 597.614 426.188 602.718 424.416 607.096C423.253 609.947 422.506 612.478 422.175 614.688C421.695 617.86 421.017 620.994 420.142 624.09C420.099 624.219 419.667 626.135 418.845 629.841C418.386 631.955 417.585 633.92 416.443 635.735C414.757 638.415 413.706 640.199 413.289 641.085C410.824 646.392 406.746 654.283 401.057 664.758C399.937 666.841 398.875 668.528 397.871 669.82C395.502 672.895 394.306 674.449 394.285 674.481C379.459 697.332 357.632 709.431 328.803 710.776C326.689 710.872 325.478 711.967 325.168 714.06C324.197 720.424 323.012 727.311 321.614 734.722C319.895 743.82 318.369 752.944 317.035 762.096C317.024 762.17 316.176 766.581 314.489 775.326C313.924 778.284 313.561 781.268 313.401 784.28C313.134 789.117 312.947 792.117 312.84 793.281C311.325 809.993 312.045 825.551 315.002 839.956C317.19 850.57 321.272 861.312 327.25 872.183C329.149 875.632 331.754 879.252 335.063 883.042C337.027 885.285 338.98 887.538 340.922 889.802C343.004 892.236 345.154 894.276 347.375 895.92C355.508 901.954 364.143 907.165 373.279 911.553C373.418 911.617 375.462 912.712 379.411 914.837C382.709 916.609 386.557 917.976 390.955 918.937C402.258 921.404 411.688 926.887 419.245 935.387C423.29 939.947 426.589 944.175 429.14 948.073C432 952.462 434.188 957.427 435.704 962.969C435.807 963.335 435.795 963.723 435.669 964.082C435.543 964.44 435.309 964.751 434.999 964.971C432.875 966.498 431.045 966.402 429.508 964.683C428.643 963.732 428.184 963.23 428.131 963.177C420.147 955.702 411.459 949.237 402.066 943.78C397.967 941.399 392.935 939.327 386.968 937.565C381.471 935.953 375.99 934.293 370.526 932.584C368.455 931.933 366.443 931.132 364.49 930.181C362.632 929.274 360.626 928.553 358.47 928.019C356.431 927.517 354.451 926.834 352.53 925.969C349.104 924.421 347.198 923.566 346.814 923.406C337.56 919.679 328.872 914.912 320.749 909.103C316.832 906.305 313.481 902.968 310.695 899.092C300.608 884.997 294.839 876.096 293.388 872.391C291.264 866.913 289.129 861.44 286.983 855.973C284.699 850.143 283.024 844.163 281.956 838.034C280.974 832.385 280.232 826.79 279.731 821.248C279.229 815.588 279.261 809.929 279.827 804.269C280.499 797.617 280.841 794.232 280.852 794.114C281.375 787.024 281.817 782.347 282.18 780.083C283.322 772.982 284.859 761.973 286.791 747.055C288.499 733.804 288.019 721.043 285.35 708.774C285.303 708.546 285.187 708.336 285.016 708.17C284.845 708.005 284.627 707.892 284.39 707.845C275.616 705.998 267.003 703.595 258.549 700.637C255.881 699.698 252.273 698.699 247.726 697.642C245.282 697.065 242.87 696.361 240.489 695.528C238.493 694.834 236.273 693.68 233.829 692.068C230.04 689.559 226.144 687.241 222.142 685.116C217.893 682.853 214.59 680.594 212.231 678.341C209.307 675.554 206.574 672.58 204.034 669.42C202.561 667.604 200.853 664.684 198.91 660.658C197.918 658.597 196.802 656.606 195.564 654.684C193.985 652.228 192.859 650.252 192.186 648.757C188.45 640.482 185.467 631.934 183.236 623.113C182.009 618.287 180.669 612.9 179.218 606.952C179.182 606.809 179.115 606.675 179.022 606.561C178.928 606.447 178.811 606.355 178.677 606.292C178.544 606.229 178.398 606.197 178.251 606.198C178.103 606.198 177.958 606.231 177.825 606.295C175.936 607.203 174.633 606.626 173.918 604.565C172.68 600.988 172.034 597.315 171.981 593.545C171.938 590.78 171.917 589.344 171.917 589.237C171.095 569.6 172.675 550.149 176.656 530.886C176.701 530.655 176.692 530.412 176.628 530.174C176.565 529.936 176.449 529.709 176.288 529.508C174.697 527.511 174.105 525.344 174.511 523.005C178.236 501.595 183.418 480.543 190.057 459.849C193.152 450.228 196.055 440.543 198.766 430.794C199.236 429.128 198.814 427.804 197.502 426.821C197.298 426.676 197.136 426.488 197.031 426.277C196.927 426.065 196.885 425.839 196.909 425.62C197.454 420.9 198.948 416.57 201.392 412.63C203.388 409.416 204.722 406.858 205.395 404.958C206.74 401.188 208.084 397.424 209.429 393.665C209.451 393.601 209.968 392.528 210.982 390.446C211.729 388.908 211.655 387.632 210.758 386.618C209.264 384.92 209.008 383.009 209.99 380.884L222.125 354.679C222.313 354.263 222.363 353.724 222.27 353.142C222.013 351.604 222.312 350.237 223.166 349.041C224.618 347.012 225.37 345.944 225.424 345.838C227.441 341.598 229.117 337.21 230.451 332.671C230.675 331.945 230.435 331.737 229.73 332.047C219.996 336.382 210.16 340.749 200.223 345.149C200.021 345.245 198.991 345.581 197.133 346.158C196.045 346.489 195.073 347.023 194.219 347.76C193.998 347.949 193.75 348.082 193.507 348.142C193.264 348.202 193.038 348.186 192.859 348.096C192.101 347.733 192.143 346.996 192.987 345.886C193.74 344.88 194.754 344.104 195.917 343.643C207.209 339.116 217.611 334.935 227.121 331.102C229.597 330.109 231.358 328.737 232.404 326.985C233.6 324.978 234.416 322.767 234.854 320.354C236.455 319.372 236.988 317.994 236.455 316.222C238.803 312.217 240.377 308.229 241.178 304.257C241.583 302.281 241.114 302.046 239.769 303.552C238.84 304.598 237.741 305.239 236.471 305.474C235.115 305.72 234.384 305.858 234.277 305.89C226.507 308.047 219.377 307.268 212.888 303.552C209.184 301.427 206.75 298.763 205.587 295.559C204.231 291.843 204.514 287.919 206.435 283.787C207.513 284.16 208.234 283.957 208.597 283.178C210.123 279.964 212.349 277.679 215.273 276.323C217.13 275.447 220.114 275.041 224.223 275.105C232.271 275.233 240.313 275.372 248.35 275.522C248.756 275.532 249.258 275.676 249.855 275.954L253.666 277.78C246.173 277.887 238.68 277.892 231.187 277.796C231.081 277.796 228.802 277.647 224.351 277.348C213.432 276.622 208.533 282.094 209.653 293.765C209.706 294.297 209.912 294.794 210.246 295.191C213.939 299.59 218.694 302.217 224.511 303.071C230.51 304.193 236.193 303.36 241.562 300.573C243.569 299.526 244.802 297.935 245.26 295.8C247.897 290.92 251.398 285.767 255.763 280.343C256.35 279.617 256.318 278.805 255.667 277.908C257.556 277.567 258.811 276.531 259.43 274.801C264.51 270.786 269.874 267.161 275.52 263.925C281.7 260.38 287.693 258.143 293.5 257.214C307.898 254.907 321.529 257.753 334.39 265.751ZM239.657 326.361C240.073 327.055 240.207 327.813 240.057 328.635C237.57 328.859 235.777 329.868 234.678 331.662C234.443 332.036 233.728 333.793 232.532 336.932C231.561 339.495 230.792 342.373 230.227 345.565C230.131 346.099 229.917 346.585 229.586 347.023C228.935 347.899 228.386 348.924 227.937 350.098C223.86 360.809 219.18 371.284 213.896 381.524C213.715 381.882 213.625 382.279 213.637 382.68C213.648 383.08 213.759 383.47 213.96 383.815C215.412 386.281 215.668 388.545 214.729 390.606C214.11 391.973 213.784 392.71 213.752 392.816C210.433 402.63 207.561 409.523 205.139 413.495C202.972 417.04 201.59 420.147 200.992 422.817C200.94 423.033 200.962 423.264 201.053 423.479C201.145 423.694 201.302 423.882 201.504 424.018C203.618 425.481 204.295 427.312 203.537 429.512C201.872 434.328 200.207 439.149 198.542 443.976C197.016 448.386 195.559 453.287 194.171 458.68C192.304 465.973 190.276 473.229 188.087 480.447C185.899 487.698 184.144 494.532 182.82 500.949C181.4 507.88 179.933 514.799 178.417 521.708C178.054 523.363 178.785 525.328 180.611 527.602C180.94 528.024 181.101 528.528 181.059 529.012C180.813 531.35 180.066 534.922 178.817 539.727C177.227 545.825 176.629 554.207 177.024 564.874C177.078 566.466 176.987 568.041 176.752 569.6C176.528 571.18 176.315 572.76 176.112 574.341C175.845 576.572 175.802 578.932 175.984 581.42C176.421 587.347 176.816 593.118 177.168 598.735C177.183 598.958 177.252 599.174 177.369 599.366C177.486 599.559 177.647 599.721 177.841 599.84C181.16 601.848 183.05 604.117 183.509 606.648C183.871 608.58 184.069 609.6 184.101 609.707C185.659 614.651 187.132 619.622 188.52 624.619C190.206 630.716 191.823 635.634 193.371 639.371C198.302 651.256 203.692 661.053 209.541 668.763C213.661 674.209 219.612 679.067 227.393 683.339C229.837 684.684 232.34 686.27 234.902 688.096C238.136 690.413 240.788 691.812 242.859 692.292C245.506 692.901 249.743 694.401 255.571 696.793C260.161 698.683 266.202 700.189 273.695 701.31C275.936 701.641 278.813 702.282 282.324 703.232C285.185 704.012 288.094 704.545 291.05 704.834C296.995 705.432 300.085 705.747 300.32 705.779C312.339 707.349 323.871 707.525 334.919 706.307C347.161 704.951 358.571 701.006 369.149 694.471C373.877 691.534 378.259 687.861 382.293 683.451C386.189 679.19 389.738 674.647 392.94 669.82C400.86 657.924 407.542 645.388 412.985 632.211C414.864 627.662 416.267 623.391 417.196 619.397C418.167 615.19 418.952 610.748 419.549 606.071C419.645 605.302 419.886 604.587 420.27 603.925C421.348 602.088 422.052 600.315 422.383 598.607C422.404 598.5 422.559 596.621 422.847 592.969C423.648 582.889 422.714 572.974 420.046 563.225C419.704 561.997 419.427 560.662 419.213 559.22C419.01 557.875 418.754 556.535 418.445 555.2C417.996 553.257 417.836 551.254 417.964 549.194C418.284 543.833 417.612 538.617 415.947 533.545C414.869 530.266 414.154 527.293 413.802 524.623C413.279 520.683 412.446 516.801 411.304 512.978C411.234 512.748 411.218 512.5 411.257 512.254C411.295 512.008 411.388 511.768 411.528 511.553C412.542 509.972 412.788 508.387 412.265 506.796C409.223 497.527 407.056 489.15 405.764 481.665C404.943 476.881 402.979 468.221 399.873 455.684C399.851 455.599 399.675 454.216 399.344 451.536C399.173 450.126 398.677 448.658 397.855 447.131C396.937 445.423 395.726 442.417 394.221 438.113C393.271 435.412 392.027 432.427 390.49 429.16C386.926 421.61 384.241 413.735 382.437 405.534C380.335 395.967 377.858 386.5 375.008 377.135C374.389 375.107 374.405 373.099 375.057 371.113C375.221 370.609 375.204 370.083 375.008 369.639C373.877 367.183 372.089 362.245 369.645 354.823C366.059 343.974 362.563 333.099 359.158 322.196C359.019 321.748 358.667 319.708 358.102 316.077C357.771 313.931 356.917 311.972 355.54 310.199C355.408 310.029 355.334 309.817 355.328 309.591C355.323 309.365 355.385 309.136 355.508 308.934C356.095 308.005 356.154 307.07 355.684 306.131C354.99 304.732 354.622 303.963 354.579 303.824C351.793 294.395 347.289 285.97 341.066 278.549C337.843 274.726 335.564 272.169 334.23 270.877C331.583 268.325 328.642 266.477 325.408 265.335C323.551 264.673 321.998 264.027 320.749 263.397C318.625 262.339 317.11 261.688 316.202 261.442C310.065 259.851 303.89 259.285 297.678 259.745C291.979 260.161 286.151 261.896 280.195 264.95C274.154 268.047 268.748 271.645 263.977 275.746C255.971 282.612 250.032 291.352 246.157 301.966C244.246 307.199 242.88 311.155 242.058 313.835C241.525 315.554 240.724 317.338 239.657 319.185C238.664 320.904 237.842 322.709 237.191 324.599C236.444 326.788 237.266 327.375 239.657 326.361ZM381.669 289.265C383.718 286.809 384.914 283.835 385.255 280.343C385.533 277.364 384.097 275.596 380.948 275.041C376.167 274.208 371.363 273.541 366.539 273.039C364.554 272.836 362.83 272.793 361.368 272.911C358.294 273.156 356.591 273.269 356.26 273.247C351.938 273.076 347.652 272.745 343.404 272.254C341.888 272.073 341.622 272.564 342.603 273.728C346.638 278.48 350.369 284.262 353.795 291.074C354.198 291.88 354.879 292.516 355.716 292.868C362.045 295.495 368.129 295.906 373.968 294.102C377.266 293.087 379.833 291.475 381.669 289.265ZM428.179 957.843C427.976 959.648 428.665 960.267 430.244 959.701C430.469 959.618 430.671 959.473 430.831 959.28C430.99 959.086 431.103 958.851 431.157 958.596C431.744 955.638 431.039 955.099 429.043 956.978C426.695 950.443 422.436 944.271 416.267 938.462C411.891 934.33 407.526 930.956 403.171 928.339C400.748 926.877 396.158 925.067 389.402 922.91C382.613 920.742 376.081 917.944 369.805 914.516C366.261 912.573 363.47 911.345 361.432 910.833C359.542 910.352 358.102 909.498 357.109 908.27C356.725 907.811 356.33 907.469 355.924 907.245C349.776 903.966 344.343 899.754 339.626 894.607C339.167 894.116 337.966 892.914 336.023 891.003C326.961 882.14 320.221 871.756 315.802 859.849C309.067 841.739 306.319 822.999 307.557 803.629C307.898 798.29 308.208 792.945 308.485 787.595C308.784 782.032 309.414 776.73 310.375 771.69C311.794 764.162 313.283 756.644 314.842 749.138C317.318 737.231 319.25 724.839 320.637 711.962C320.649 711.854 320.637 711.745 320.603 711.643C320.57 711.54 320.515 711.445 320.443 711.365C320.37 711.285 320.281 711.221 320.183 711.178C320.084 711.134 319.977 711.112 319.869 711.113C311.309 711.006 302.225 710.269 292.619 708.902C292.252 708.85 291.878 708.883 291.526 708.999C291.174 709.115 290.854 709.311 290.59 709.572C290.327 709.832 290.127 710.15 290.007 710.501C289.887 710.852 289.849 711.225 289.897 711.593C290.442 715.811 291.018 720.59 291.626 725.929C292.267 731.556 292.24 737.173 291.546 742.779C290.34 752.517 289.038 762.251 287.64 771.978C286.455 780.137 285.473 788.316 284.694 796.517C283.776 806.202 283.6 814.414 284.166 821.152C285.212 833.752 287.981 846.016 292.475 857.943C293.062 859.481 293.953 862.076 295.149 865.728C296.152 868.814 297.267 871.334 298.495 873.288C301.58 878.2 306.9 885.776 314.457 896.016C314.5 896.059 314.959 896.743 315.834 898.067C317.094 899.967 319.084 901.954 321.806 904.025C330.58 910.699 338.254 915.702 344.829 919.033C348.938 921.116 359.516 924.965 376.561 930.582C376.615 930.603 380.452 931.687 388.073 933.833C395.63 935.948 402.6 939.279 408.982 943.828C412.836 946.572 416.086 948.82 418.733 950.571C422.042 952.761 425.19 955.184 428.179 957.843Z" fill="#222222" fill-opacity="0.996"/>
<path d="M334.39 265.751C336.578 267.502 338.99 268.383 341.627 268.394C344.317 268.405 345.715 268.415 345.822 268.426C350.144 268.736 355.081 268.57 360.631 267.929C370.686 266.776 380.383 268.682 389.722 273.648C389.21 275.239 388.084 275.399 386.344 274.128C385.511 273.519 384.604 273.06 383.622 272.751C376.151 270.444 368.22 269.601 359.831 270.22C356.597 270.466 353.859 270.551 351.617 270.476C349.792 270.412 347.967 270.369 346.142 270.348C345.512 270.348 343.73 270.588 340.794 271.069C337.08 271.667 334.945 269.894 334.39 265.751Z" fill="#454E4D" fill-opacity="0.996"/>
<path d="M259.429 274.801C258.81 276.531 257.556 277.567 255.667 277.908L253.666 277.78L249.855 275.954C249.257 275.676 248.756 275.532 248.35 275.522C240.313 275.372 232.27 275.233 224.223 275.105C220.113 275.041 217.13 275.447 215.273 276.323C212.348 277.679 210.123 279.964 208.596 283.178C208.234 283.957 207.513 284.16 206.435 283.787C210.011 275.789 216.031 272.179 224.495 272.959C228.657 273.354 230.771 273.552 230.835 273.552C240.26 273.883 249.791 274.299 259.429 274.801Z" fill="#454E4D" fill-opacity="0.996"/>
<path d="M321.229 282.97C323.759 284.753 323.615 285.362 320.797 284.796C320.37 284.71 319.933 284.545 319.484 284.299C317.606 283.263 316.213 282.713 315.306 282.649C313.107 282.479 308.186 282.457 300.544 282.585C298.377 282.628 296.275 283.002 294.236 283.706C292.187 284.411 290.137 285.127 288.088 285.853C287.33 286.12 286.727 286.152 286.279 285.949C285.724 285.714 285.756 285.41 286.375 285.036C289.897 282.9 293.003 281.571 295.693 281.048C303.346 279.553 311.415 279.985 319.901 282.345C320.392 282.484 320.835 282.692 321.229 282.97Z" fill="black" fill-opacity="0.996"/>
<path d="M337.784 286.253C335.778 288.175 333.376 289.243 330.58 289.457C329.673 286.83 330.345 284.934 332.597 283.771C332.819 283.659 333.066 283.596 333.322 283.585C333.578 283.574 333.838 283.615 334.086 283.706C335.506 284.262 336.738 285.111 337.784 286.253Z" fill="#848683" fill-opacity="0.996"/>
<path d="M273.038 286.093C270.968 289.318 268.118 291.454 264.489 292.5C265.108 287.802 267.958 285.666 273.038 286.093Z" fill="#848683" fill-opacity="0.996"/>
<path d="M273.039 286.093C275.44 292.66 273.252 296.419 266.474 297.369C266.224 297.403 265.972 297.37 265.746 297.274C265.519 297.178 265.328 297.022 265.193 296.825C264.244 295.404 264.009 293.963 264.489 292.5C268.118 291.454 270.968 289.318 273.039 286.093Z" fill="black" fill-opacity="0.996"/>
<path d="M337.784 286.253C341.648 290.236 341.072 293.504 336.055 296.056C335.75 296.21 335.403 296.261 335.066 296.204C334.729 296.146 334.419 295.982 334.182 295.735C332.399 293.877 331.199 291.785 330.58 289.457C333.376 289.243 335.778 288.175 337.784 286.253Z" fill="black" fill-opacity="0.996"/>
<path d="M311.303 296.328C310.107 297.844 308.506 298.645 306.5 298.731C305.102 298.378 304.691 296.841 305.267 294.118C305.598 292.548 306.228 292.42 307.156 293.733C308.352 295.431 309.734 296.296 311.303 296.328Z" fill="#454E4D" fill-opacity="0.996"/>
<path d="M305.635 315.084C311.591 313.312 312.712 310.146 308.998 305.586C308.987 303.066 308.154 300.781 306.5 298.731C308.507 298.645 310.108 297.844 311.303 296.328C312.392 293.936 313.982 293.162 316.074 294.006C316.298 294.097 316.485 294.259 316.604 294.466C316.723 294.672 316.768 294.911 316.731 295.143C316.4 297.225 315.199 298.789 313.128 299.836C311.132 300.84 310.759 302.356 312.008 304.385C312.99 305.976 313.411 307.706 313.272 309.574C313.123 311.443 313.843 313.104 315.434 314.556C317.825 316.745 320.274 318.854 322.783 320.883C324.971 322.655 325.045 323.622 323.007 323.782C322.398 323.825 321.747 323.739 321.053 323.526C317.232 322.372 314.377 320.044 312.488 316.542C312.366 316.313 312.196 316.114 311.989 315.958C311.781 315.802 311.542 315.694 311.287 315.64C311.032 315.587 310.768 315.59 310.514 315.649C310.26 315.708 310.021 315.821 309.814 315.981C308.448 317.028 307.188 318.181 306.036 319.441C304.317 321.31 303.068 322.436 302.289 322.821C300.464 323.686 298.484 323.771 296.349 323.077C295.709 322.863 295.293 322.554 295.101 322.148C294.844 321.625 295.01 321.155 295.597 320.739C295.885 320.525 296.317 320.391 296.894 320.338C300.587 319.975 303.501 318.224 305.635 315.084Z" fill="black" fill-opacity="0.996"/>
<path d="M245.26 295.8C244.801 297.935 243.568 299.526 241.562 300.573C236.193 303.36 230.509 304.193 224.511 303.071C226.976 302.089 229.223 301.662 231.251 301.79C231.795 301.822 232.302 301.731 232.772 301.518L245.26 295.8Z" fill="#848683" fill-opacity="0.996"/>
<path d="M305.635 315.084C307.567 312.5 308.688 309.334 308.997 305.586C312.712 310.146 311.591 313.312 305.635 315.084Z" fill="#454E4D" fill-opacity="0.996"/>
<path d="M351.761 307.893C353.907 309.057 354.424 309.687 353.314 309.783C352.952 309.815 352.509 309.719 351.986 309.494C350.086 308.683 348.116 308.176 346.078 307.973C343.868 307.748 342.908 307.53 343.196 307.316C343.484 307.102 345.464 307.054 349.136 307.172C350.064 307.204 350.94 307.444 351.761 307.893Z" fill="#0C0D11" fill-opacity="0.725"/>
<path d="M257.908 313.433C264.558 312.104 269.871 310.632 269.774 310.146C269.677 309.661 264.207 310.345 257.557 311.674C250.906 313.004 245.593 314.475 245.69 314.961C245.787 315.447 251.257 314.763 257.908 313.433Z" fill="#0F1415" fill-opacity="0.537"/>
<path d="M236.455 316.222C236.988 317.994 236.455 319.372 234.853 320.354C233.498 320.194 232.164 320.327 230.851 320.755C230.189 320.424 229.901 319.868 229.986 319.089L236.455 316.222Z" fill="#848683" fill-opacity="0.996"/>
<path d="M240.057 328.635C240.206 327.813 240.073 327.055 239.657 326.361C249.38 323.467 259.147 320.755 268.956 318.224C270.728 317.765 271.363 317.802 270.861 318.336C270.669 318.549 270.37 318.72 269.964 318.848C269.046 319.137 268.118 319.398 267.179 319.633C266.431 319.836 265.562 320.215 264.569 320.771C262.989 321.668 260.689 322.575 257.668 323.493C251.819 325.266 245.949 326.98 240.057 328.635Z" fill="#0F1415" fill-opacity="0.537"/>
<path d="M229.987 319.089C229.901 319.868 230.189 320.424 230.851 320.755C228.482 321.78 226.069 322.703 223.614 323.526C223.518 323.558 221.768 324.214 218.363 325.496C215.46 326.596 212.455 327.22 209.349 327.37C208.773 327.402 208.693 327.22 209.109 326.825C210.902 325.17 213.08 324.321 215.641 324.278C216.196 324.268 216.693 324.14 217.13 323.894C221.165 321.619 225.45 320.018 229.987 319.089Z" fill="#0C0D11" fill-opacity="0.725"/>
<path d="M396.142 322.324C395.736 322.431 395.501 322.276 395.437 321.86C395.425 321.772 395.434 321.683 395.462 321.597C395.491 321.511 395.539 321.43 395.603 321.36C395.667 321.29 395.747 321.231 395.837 321.187C395.926 321.144 396.025 321.117 396.126 321.107C398.602 320.893 401.212 321.625 403.955 323.301C405.994 324.551 408.182 324.887 410.519 324.31C411.277 324.129 412.504 324.962 414.202 326.809C415.418 328.123 415.21 328.518 413.577 327.994L408.134 326.248C407.173 325.939 406.687 325.784 406.677 325.784C403.24 325.677 400.171 324.577 397.471 322.484C397.316 322.366 397.115 322.289 396.884 322.261C396.653 322.233 396.398 322.255 396.142 322.324Z" fill="#0C0D11" fill-opacity="0.725"/>
<path d="M365.418 322.148C369.869 323.782 374.4 325.079 379.011 326.04C383.878 327.065 387.742 328.123 390.602 329.212C394.359 330.653 398.095 332.138 401.81 333.665C400.006 333.366 398.922 333.958 398.559 335.442L365.274 323.894L365.418 322.148Z" fill="#0F1415" fill-opacity="0.537"/>
<path d="M310.607 329.516C313.71 329.57 316.236 329.004 316.249 328.253C316.263 327.501 313.758 326.847 310.654 326.793C307.551 326.739 305.025 327.305 305.012 328.056C304.999 328.808 307.504 329.462 310.607 329.516Z" fill="black" fill-opacity="0.996"/>
<path d="M401.81 333.664C407.061 336.708 411.314 338.523 414.57 339.11C417.046 339.559 418.765 340.627 419.725 342.314C420.003 342.794 419.853 343.019 419.277 342.987C416.032 342.773 412.675 341.497 409.206 339.158C408.178 338.468 406.931 338.194 405.716 338.39C404.873 338.518 404.275 338.24 403.923 337.557C403.812 337.345 403.655 337.168 403.468 337.047C403.281 336.925 403.073 336.863 402.866 336.868C401.255 336.889 399.819 336.414 398.56 335.442C398.922 333.958 400.006 333.366 401.81 333.664Z" fill="#0C0D11" fill-opacity="0.725"/>
<path d="M401.473 350.21C402.103 350.296 402.733 350.6 403.363 351.123C404.932 352.437 406.896 353.136 409.254 353.222C409.811 353.242 410.308 353.43 410.647 353.75C412.942 355.886 412.323 356.446 408.79 355.432C408.246 355.283 407.552 355.144 406.709 355.016C404.382 354.653 402.413 353.649 400.801 352.004C400.436 351.629 399.972 351.377 399.472 351.284C397.06 350.792 394.845 349.89 392.828 348.577C390.127 346.836 388.105 345.688 386.76 345.133C382.619 343.414 378.563 341.39 374.592 339.062C374.315 338.902 374.325 338.774 374.624 338.678C377.09 337.962 379.475 338.181 381.781 339.335C388.057 342.453 394.125 345.934 399.984 349.778C400.283 349.981 400.78 350.125 401.473 350.21Z" fill="#0F1415" fill-opacity="0.537"/>
<path d="M340.922 503.224C339.556 503.768 339.156 504.836 339.721 506.427L328.402 503.048C328.17 502.977 327.923 502.964 327.685 503.01C327.446 503.056 327.222 503.158 327.031 503.309C326.841 503.46 326.69 503.655 326.591 503.878C326.493 504.1 326.449 504.343 326.465 504.585C326.721 508.526 326.919 512.231 327.057 515.701C327.132 517.538 327.986 518.408 329.619 518.312C330.142 518.281 330.635 518.43 330.996 518.729C332.554 520.053 334.129 520.378 335.719 519.706C338.974 518.317 341.397 515.648 342.988 511.697L349.456 507.388C354.75 502.487 359.275 496.972 363.033 490.842C363.304 490.394 363.7 490.041 364.169 489.833C367.628 488.242 368.647 488.958 367.227 491.98C366.907 492.642 366.341 493.427 365.53 494.334C364.57 495.391 363.71 496.523 362.953 497.73C360.594 501.521 357.771 504.884 354.483 507.821C350.897 510.992 348.709 512.978 347.919 513.779C345.816 515.861 343.665 517.89 341.467 519.866C339.62 521.521 337.645 522.439 335.543 522.621C332.704 522.856 329.475 522.706 325.857 522.172C325.289 522.089 324.762 521.827 324.351 521.425C323.939 521.022 323.665 520.499 323.567 519.93C322.393 513.053 322.041 506.038 322.51 498.883C323.225 488.066 324.026 477.254 324.912 466.448C325.478 459.486 326.63 453.357 328.37 448.06C328.552 447.494 328.808 447.067 329.139 446.779C330.11 445.925 330.382 446.731 329.955 449.197C329.454 452.038 329.133 454.894 328.995 457.767C328.813 461.312 328.589 464.152 328.322 466.288C326.999 476.539 326.55 486.833 326.977 497.169C326.987 497.42 327.058 497.663 327.184 497.876C327.31 498.089 327.487 498.264 327.698 498.387C331.764 500.8 336.173 502.412 340.922 503.224Z" fill="#222222" fill-opacity="0.996"/>
<path d="M256.387 460.954C254.957 459.256 253.975 457.345 253.442 455.22C253.372 454.941 253.381 454.656 253.467 454.422C253.554 454.187 253.71 454.02 253.906 453.955C254.258 453.826 254.61 453.955 254.963 454.339C257.513 457.083 259.75 460.18 261.671 463.629C264.361 468.477 266.244 471.771 267.323 473.512C269.372 476.811 271.202 480.228 272.814 483.763C272.942 484.03 274.074 486.4 276.208 490.874C280.414 499.652 281.972 508.995 280.883 518.905C280.841 519.268 280.483 519.866 279.811 520.699C279.654 520.886 279.537 521.107 279.469 521.349C279.4 521.592 279.38 521.85 279.41 522.108C279.688 524.874 278.444 526.609 275.68 527.314C274.175 527.698 271.603 527.752 267.963 527.474C267.715 527.454 267.474 527.381 267.253 527.259C267.033 527.138 266.838 526.971 266.682 526.769C263.138 522.284 259.237 518.996 254.979 516.903C253.207 516.027 251.696 514.826 250.448 513.299C245.314 506.988 239.331 502.637 232.5 500.245C232.254 500.156 232.036 500.016 231.866 499.837C231.695 499.658 231.577 499.446 231.523 499.219C231.054 497.297 231.817 496.432 233.813 496.625C234.571 496.689 235.51 496.961 236.631 497.442C244.22 500.645 251.099 506.144 257.268 513.939C257.356 514.054 257.469 514.147 257.598 514.212C257.727 514.277 257.87 514.312 258.015 514.315C258.161 514.318 258.305 514.289 258.439 514.229C258.573 514.17 258.692 514.082 258.789 513.971C263.485 508.44 268.022 504.441 272.398 501.974C274.148 500.992 274.661 499.561 273.935 497.682C271.853 492.268 269.473 486.966 266.794 481.777C266.773 481.734 265.471 479.513 262.888 475.113C261.18 472.188 260 469.417 259.349 466.8C258.816 464.622 257.828 462.673 256.387 460.954ZM272.926 522.188C273.332 523.737 274.175 524.265 275.456 523.774C275.674 523.689 275.872 523.543 276.033 523.348C276.195 523.153 276.315 522.915 276.384 522.653C277.911 516.63 277.388 510.816 274.815 505.21C274.772 505.115 274.709 505.03 274.631 504.96C274.552 504.89 274.46 504.837 274.36 504.804C274.259 504.771 274.153 504.759 274.047 504.768C273.941 504.777 273.837 504.808 273.743 504.858C269.879 506.833 266.629 509.535 263.992 512.962C263.928 513.048 263.475 513.566 262.631 514.516C261.233 516.118 261.575 517.495 263.656 518.648C264.126 518.905 264.521 519.236 264.841 519.642C266.709 521.948 269.105 522.626 272.03 521.676C272.121 521.647 272.217 521.638 272.312 521.649C272.407 521.659 272.5 521.689 272.583 521.737C272.667 521.785 272.741 521.85 272.8 521.927C272.859 522.005 272.902 522.094 272.926 522.188Z" fill="#272826" fill-opacity="0.996"/>
<path d="M340.922 503.224C342.225 503.587 343.377 504.185 344.381 505.018C344.455 505.082 344.914 505.669 345.758 506.78C346.558 507.847 347.791 508.05 349.456 507.388L342.988 511.697C343.372 508.942 342.283 507.185 339.722 506.427C339.156 504.836 339.556 503.768 340.922 503.224Z" fill="#454E4D" fill-opacity="0.996"/>
<path d="M372.943 598.927C373.06 599.771 372.81 600.438 372.19 600.929C371.796 601.239 371.182 601.357 370.349 601.282C365.77 600.823 361.602 601.693 357.845 603.893L359.734 596.989C360.45 594.405 361.485 594.437 362.84 597.085C363.854 599.082 365.237 599.087 366.987 597.101C367.164 596.903 367.388 596.751 367.637 596.661C367.887 596.571 368.155 596.544 368.417 596.584C368.678 596.624 368.925 596.729 369.134 596.889C369.343 597.05 369.508 597.26 369.613 597.502C370.328 599.114 371.438 599.589 372.943 598.927Z" fill="#848683" fill-opacity="0.996"/>
<path d="M253.073 599.312C250.277 602.803 247.673 604.699 245.26 604.998C240.222 605.617 236.508 606.685 234.117 608.201C233.861 605.98 234.138 603.615 234.95 601.106C235.002 600.94 235.096 600.791 235.224 600.671C235.351 600.551 235.508 600.464 235.682 600.417C235.856 600.37 236.042 600.364 236.223 600.4C236.405 600.437 236.578 600.514 236.727 600.625L240.281 603.284C240.471 603.425 240.701 603.519 240.953 603.561C241.205 603.602 241.473 603.59 241.738 603.524C245.122 602.713 247.817 600.849 249.823 597.934C250.827 596.482 251.91 596.941 253.073 599.312Z" fill="#848683" fill-opacity="0.996"/>
<path d="M357.845 603.893C361.602 601.693 365.77 600.823 370.349 601.282C371.182 601.357 371.795 601.239 372.19 600.929C372.809 600.438 373.06 599.771 372.943 598.927C374.843 597.443 376.225 597.747 377.09 599.84C377.265 600.283 377.265 600.818 377.09 601.346C376.012 604.688 375.419 608.1 375.312 611.581C375.27 613.215 374.944 615.174 374.336 617.459C373.898 619.104 373.567 621.09 373.343 623.418C371.71 640.439 367.008 657.316 359.238 674.048C358.224 676.216 357.055 677.572 355.732 678.117C354.163 678.768 352.652 678.528 351.201 677.396C350.272 676.649 349.525 675.474 348.959 673.872C347.337 669.249 346.734 664.475 347.15 659.553C347.193 659.051 347.118 658.538 346.926 658.015C346.19 655.965 346.056 653.642 346.526 651.048C349.642 633.909 353.416 618.191 357.845 603.893ZM366.731 606.151C364.329 605.073 362.376 605.329 360.871 606.92C360.06 607.774 359.387 609.355 358.854 611.661C357.562 617.246 356.137 622.798 354.579 628.319C354.013 630.359 353.528 633.076 353.122 636.472C352.791 639.238 352.22 641.966 351.409 644.657C350.16 648.789 349.765 652.927 350.224 657.07C350.448 659.035 350.715 661.715 351.025 665.111C351.281 667.834 351.916 670.487 352.93 673.071C353.816 675.325 354.584 675.426 355.235 673.376C355.919 671.197 356.863 669.158 358.069 667.257C359.585 664.865 360.588 662.911 361.079 661.395C364.73 650.012 367.419 638.405 369.148 626.573C370.098 620.081 371.027 613.588 371.934 607.096C371.948 606.994 371.941 606.89 371.912 606.792C371.884 606.693 371.835 606.603 371.769 606.526C371.703 606.45 371.623 606.39 371.532 606.35C371.442 606.31 371.344 606.291 371.246 606.295L368.236 606.439C367.702 606.461 367.2 606.365 366.731 606.151Z" fill="#131311" fill-opacity="0.996"/>
<path d="M253.073 599.312C253.543 604.736 254.189 610.123 255.011 615.473C256.26 623.695 257.039 629.067 257.348 631.587C259.269 647.209 260.577 657.033 261.271 661.058C262.103 665.938 261.506 671.673 259.478 678.261C259.093 679.521 258.453 680.637 257.556 681.609C254.397 685.015 251.291 684.919 248.238 681.32C246.285 679.014 244.951 676.382 244.236 673.424C242.09 664.625 239.897 655.831 237.655 647.043C234.976 636.515 233.797 623.567 234.117 608.201C236.508 606.685 240.222 605.617 245.26 604.998C247.673 604.699 250.277 602.803 253.073 599.312ZM250.464 619.013C249.663 616.183 249.53 613.781 250.064 611.805C250.48 610.257 250.266 608.975 249.423 607.961C249.287 607.796 249.088 607.687 248.858 607.652C248.628 607.617 248.382 607.658 248.158 607.769C245.351 609.136 242.421 609.552 239.369 609.018C239.258 609 239.145 609.005 239.037 609.034C238.928 609.064 238.828 609.116 238.741 609.187C238.655 609.258 238.584 609.347 238.535 609.448C238.486 609.549 238.459 609.659 238.456 609.771C238.082 624.069 239.817 638.095 243.659 651.848C243.862 652.596 244.294 654.566 244.956 657.759C245.778 661.742 246.819 665.661 248.078 669.516C248.11 669.622 248.388 671.021 248.911 673.712C249.242 675.41 250.069 677.097 251.392 678.774C253.1 680.941 254.488 680.754 255.555 678.213C256.59 675.736 257.247 673.184 257.524 670.557C257.727 668.72 257.588 666.136 257.108 662.804C255.678 652.927 254.392 643.034 253.25 633.124C252.695 628.34 251.766 623.637 250.464 619.013Z" fill="#272826" fill-opacity="0.996"/>
<path d="M428.179 957.843C428.798 957.886 429.086 957.598 429.043 956.978C431.039 955.099 431.744 955.638 431.157 958.596C431.102 958.851 430.99 959.086 430.831 959.28C430.671 959.473 430.469 959.618 430.244 959.701C428.664 960.267 427.976 959.648 428.179 957.843Z" fill="#454E4D" fill-opacity="0.996"/>
<path d="M1611.61 269.751C1611.06 273.894 1608.92 275.667 1605.21 275.069C1602.27 274.588 1600.49 274.348 1599.86 274.348C1598.03 274.369 1596.21 274.412 1594.38 274.476C1592.14 274.551 1589.4 274.466 1586.17 274.22C1577.78 273.601 1569.85 274.444 1562.38 276.751C1561.4 277.06 1560.49 277.519 1559.66 278.128C1557.92 279.399 1556.79 279.239 1556.28 277.648" stroke="#343838" stroke-opacity="0.996" stroke-width="2"/>
<path d="M1580.58 326.148L1580.73 327.894" stroke="#1B1D1D" stroke-opacity="0.769" stroke-width="2"/>
<path d="M1711.15 324.354C1709.55 323.372 1709.01 321.994 1709.55 320.222" stroke="#535453" stroke-opacity="0.996" stroke-width="2"/>
<path d="M1739.56 287.787C1738.49 288.16 1737.77 287.957 1737.4 287.178C1735.88 283.964 1733.65 281.679 1730.73 280.323C1728.87 279.447 1725.89 279.041 1721.78 279.105C1713.73 279.233 1705.69 279.372 1697.65 279.522C1697.24 279.532 1696.74 279.676 1696.14 279.954L1692.33 281.78" stroke="#343838" stroke-opacity="0.996" stroke-width="2"/>
<path d="M1721.49 307.071C1715.49 308.193 1709.81 307.36 1704.44 304.573C1702.43 303.526 1701.2 301.935 1700.74 299.8" stroke="#535453" stroke-opacity="0.996" stroke-width="2"/>
<path d="M1690.33 281.908C1688.44 281.567 1687.19 280.531 1686.57 278.801" stroke="#343838" stroke-opacity="0.996" stroke-width="2"/>
<path d="M1715.15 324.755C1715.81 324.424 1716.1 323.868 1716.01 323.089" stroke="#515353" stroke-opacity="0.863" stroke-width="2"/>
<path d="M1706.34 330.361C1705.93 331.055 1705.79 331.813 1705.94 332.635" stroke="#1B1D1D" stroke-opacity="0.769" stroke-width="2"/>
<path d="M1517.82 961.843C1518.02 963.648 1517.34 964.267 1515.76 963.701C1515.53 963.618 1515.33 963.473 1515.17 963.28C1515.01 963.086 1514.9 962.851 1514.84 962.596C1514.26 959.638 1514.96 959.099 1516.96 960.978" stroke="#343838" stroke-opacity="0.996" stroke-width="2"/>
<path d="M1608.22 290.253C1610.22 292.175 1612.62 293.243 1615.42 293.457" stroke="#424342" stroke-opacity="0.996" stroke-width="2"/>
<path d="M1672.96 290.093C1675.03 293.318 1677.88 295.454 1681.51 296.5" stroke="#424342" stroke-opacity="0.996" stroke-width="2"/>
<path d="M1634.7 300.328C1635.89 301.844 1637.49 302.645 1639.5 302.731" stroke="#232727" stroke-opacity="0.996" stroke-width="2"/>
<path d="M1640.36 319.084C1634.41 317.312 1633.29 314.146 1637 309.586" stroke="#232727" stroke-opacity="0.996" stroke-width="2"/>
<path d="M1605.08 507.224C1606.44 507.768 1606.84 508.836 1606.28 510.427" stroke="#343838" stroke-opacity="0.996" stroke-width="2"/>
<path d="M1603.01 515.697L1596.54 511.388" stroke="#343838" stroke-opacity="0.996" stroke-width="2"/>
<path d="M1573.06 602.927C1572.94 603.771 1573.19 604.438 1573.81 604.929C1574.2 605.239 1574.82 605.357 1575.65 605.282C1580.23 604.823 1584.4 605.693 1588.15 607.893" stroke="#4C4D4A" stroke-opacity="0.996" stroke-width="2"/>
<path d="M1692.93 603.312C1695.72 606.803 1698.33 608.699 1700.74 608.998C1705.78 609.617 1709.49 610.685 1711.88 612.201" stroke="#565755" stroke-opacity="0.996" stroke-width="2"/>
<path d="M1611.61 269.751C1611.05 273.894 1608.92 275.667 1605.21 275.069C1602.27 274.588 1600.49 274.348 1599.86 274.348C1598.03 274.369 1596.21 274.412 1594.38 274.476C1592.14 274.551 1589.4 274.466 1586.17 274.22C1577.78 273.601 1569.85 274.444 1562.38 276.751C1561.4 277.06 1560.49 277.519 1559.66 278.128C1557.92 279.399 1556.79 279.239 1556.28 277.648C1554.67 282.784 1555 287.301 1557.27 291.198C1557.84 292.181 1558.36 293.179 1558.84 294.194C1559.39 295.357 1560.02 296.281 1560.73 296.965C1567.88 303.969 1576.5 306.239 1586.6 303.772C1586.7 303.75 1586.79 303.749 1586.89 303.769C1586.98 303.79 1587.07 303.831 1587.14 303.89C1587.22 303.949 1587.28 304.024 1587.31 304.109C1587.35 304.194 1587.37 304.287 1587.37 304.381C1587.3 307.915 1586.41 311.268 1584.73 314.439C1584.53 314.822 1584.21 315.129 1583.82 315.314C1583.43 315.499 1582.99 315.551 1582.57 315.465C1581.24 315.187 1580.02 315.267 1578.88 315.705C1576.79 316.538 1575.71 316.965 1575.63 316.986C1568.05 318.759 1560.55 320.873 1553.14 323.329C1552.94 323.393 1552.6 323.462 1552.12 323.537C1551.26 323.676 1551.36 324.039 1552.42 324.626C1552.85 324.864 1553.39 324.938 1553.94 324.835C1560.07 323.575 1565.47 322.026 1570.16 320.19C1574.52 318.46 1578.86 317.766 1583.16 318.107C1583.39 318.126 1583.61 318.227 1583.76 318.389C1583.92 318.552 1584.02 318.765 1584.02 318.988C1584.18 322.096 1583.04 324.482 1580.58 326.148L1580.73 327.894C1581.15 330.435 1580.29 333.783 1578.15 337.937C1577.99 338.26 1577.74 338.531 1577.43 338.721C1577.12 338.91 1576.76 339.01 1576.4 339.01C1575.69 339.01 1575.2 339.282 1574.95 339.827C1574.71 340.339 1574.91 340.542 1575.55 340.436C1577.56 340.104 1578.15 340.921 1577.33 342.886C1576.86 343.975 1576.56 344.755 1576.44 345.225C1573.49 356.341 1569.57 367.099 1564.67 377.5C1564.04 378.824 1564.19 379.918 1565.12 380.783C1565.56 381.183 1565.84 381.631 1565.9 382.032C1566.09 383.527 1565.9 384.921 1565.32 386.213C1564.45 388.167 1563.95 389.416 1563.83 389.961C1562.68 395.567 1561.45 401.162 1560.15 406.747C1558.98 411.777 1557.16 417.18 1554.71 422.957C1551.11 431.446 1547.84 439.967 1544.88 448.52C1544.43 449.812 1543.83 451.035 1543.09 452.188C1541.54 454.559 1541.13 456.668 1541.87 458.515C1542.22 459.388 1542.27 460.352 1542.01 461.254C1538.89 472.103 1536.16 482.344 1533.85 491.975C1532.1 499.269 1529.99 506.674 1527.54 514.191C1527.4 514.607 1527.4 515.055 1527.53 515.473C1527.66 515.89 1527.92 516.255 1528.28 516.514C1530.22 517.966 1530.93 519.579 1530.42 521.351C1527.26 532.328 1524.36 543.37 1521.71 554.475C1521.66 554.698 1521.66 554.937 1521.72 555.174C1521.78 555.41 1521.9 555.637 1522.06 555.836C1523.07 557.054 1523.39 558.223 1523.02 559.344C1519.62 570.044 1518.15 582.19 1518.62 595.784C1518.82 601.614 1519.81 606.718 1521.58 611.096C1522.75 613.947 1523.49 616.478 1523.83 618.688C1524.31 621.86 1524.98 624.994 1525.86 628.09C1525.9 628.219 1526.33 630.135 1527.16 633.841C1527.61 635.955 1528.41 637.92 1529.56 639.735C1531.24 642.415 1532.29 644.199 1532.71 645.085C1535.18 650.392 1539.25 658.283 1544.94 668.758C1546.06 670.841 1547.13 672.528 1548.13 673.82C1550.5 676.895 1551.69 678.449 1551.72 678.481C1566.54 701.332 1588.37 713.431 1617.2 714.776C1619.31 714.872 1620.52 715.967 1620.83 718.06C1621.8 724.424 1622.99 731.311 1624.39 738.722C1626.1 747.82 1627.63 756.944 1628.97 766.096C1628.98 766.17 1629.82 770.581 1631.51 779.326C1632.08 782.284 1632.44 785.268 1632.6 788.28C1632.87 793.117 1633.05 796.117 1633.16 797.281C1634.68 813.993 1633.95 829.551 1631 843.956C1628.81 854.57 1624.73 865.312 1618.75 876.183C1616.85 879.632 1614.25 883.252 1610.94 887.042C1608.97 889.285 1607.02 891.538 1605.08 893.802C1603 896.236 1600.85 898.276 1598.63 899.92C1590.49 905.954 1581.86 911.165 1572.72 915.553C1572.58 915.617 1570.54 916.712 1566.59 918.837C1563.29 920.609 1559.44 921.976 1555.05 922.937C1543.74 925.404 1534.31 930.887 1526.75 939.387C1522.71 943.947 1519.41 948.175 1516.86 952.073C1514 956.462 1511.81 961.427 1510.3 966.969C1510.19 967.335 1510.21 967.723 1510.33 968.082C1510.46 968.44 1510.69 968.751 1511 968.971C1513.12 970.498 1514.96 970.402 1516.49 968.683C1517.36 967.732 1517.82 967.23 1517.87 967.177C1525.85 959.702 1534.54 953.237 1543.93 947.78C1548.03 945.399 1553.07 943.327 1559.03 941.565C1564.53 939.953 1570.01 938.293 1575.47 936.584C1577.55 935.933 1579.56 935.132 1581.51 934.181C1583.37 933.274 1585.37 932.553 1587.53 932.019C1589.57 931.517 1591.55 930.834 1593.47 929.969C1596.9 928.421 1598.8 927.566 1599.19 927.406C1608.44 923.679 1617.13 918.912 1625.25 913.103C1629.17 910.305 1632.52 906.968 1635.31 903.092C1645.39 888.997 1651.16 880.096 1652.61 876.391C1654.74 870.913 1656.87 865.44 1659.02 859.973C1661.3 854.143 1662.98 848.163 1664.04 842.034C1665.03 836.385 1665.77 830.79 1666.27 825.248C1666.77 819.588 1666.74 813.929 1666.17 808.269C1665.5 801.617 1665.16 798.232 1665.15 798.114C1664.63 791.024 1664.18 786.347 1663.82 784.083C1662.68 776.982 1661.14 765.973 1659.21 751.055C1657.5 737.804 1657.98 725.043 1660.65 712.774C1660.7 712.546 1660.81 712.336 1660.98 712.17C1661.16 712.005 1661.37 711.892 1661.61 711.845C1670.38 709.998 1679 707.595 1687.45 704.637C1690.12 703.698 1693.73 702.699 1698.27 701.642C1700.72 701.065 1703.13 700.361 1705.51 699.528C1707.51 698.834 1709.73 697.68 1712.17 696.068C1715.96 693.559 1719.86 691.241 1723.86 689.116C1728.11 686.853 1731.41 684.594 1733.77 682.341C1736.69 679.554 1739.43 676.58 1741.97 673.42C1743.44 671.604 1745.15 668.684 1747.09 664.658C1748.08 662.597 1749.2 660.606 1750.44 658.684C1752.02 656.228 1753.14 654.252 1753.81 652.757C1757.55 644.482 1760.53 635.934 1762.76 627.113C1763.99 622.287 1765.33 616.9 1766.78 610.952C1766.82 610.809 1766.88 610.675 1766.98 610.561C1767.07 610.447 1767.19 610.355 1767.32 610.292C1767.46 610.229 1767.6 610.197 1767.75 610.198C1767.9 610.198 1768.04 610.231 1768.18 610.295C1770.06 611.203 1771.37 610.626 1772.08 608.565C1773.32 604.988 1773.97 601.315 1774.02 597.545C1774.06 594.78 1774.08 593.344 1774.08 593.237C1774.9 573.6 1773.33 554.149 1769.34 534.886C1769.3 534.655 1769.31 534.412 1769.37 534.174C1769.44 533.936 1769.55 533.709 1769.71 533.508C1771.3 531.511 1771.89 529.344 1771.49 527.005C1767.76 505.595 1762.58 484.543 1755.94 463.849C1752.85 454.228 1749.94 444.543 1747.23 434.794C1746.76 433.128 1747.19 431.804 1748.5 430.821C1748.7 430.676 1748.86 430.488 1748.97 430.277C1749.07 430.065 1749.12 429.839 1749.09 429.62C1748.55 424.9 1747.05 420.57 1744.61 416.63C1742.61 413.416 1741.28 410.858 1740.61 408.958C1739.26 405.188 1737.92 401.424 1736.57 397.665C1736.55 397.601 1736.03 396.528 1735.02 394.446C1734.27 392.908 1734.35 391.632 1735.24 390.618C1736.74 388.92 1736.99 387.009 1736.01 384.884L1723.87 358.679C1723.69 358.263 1723.64 357.724 1723.73 357.142C1723.99 355.604 1723.69 354.237 1722.83 353.041C1721.38 351.012 1720.63 349.944 1720.58 349.838C1718.56 345.598 1716.88 341.21 1715.55 336.671C1715.32 335.945 1715.57 335.737 1716.27 336.047C1726 340.382 1735.84 344.749 1745.78 349.149C1745.98 349.245 1747.01 349.581 1748.87 350.158C1749.96 350.489 1750.93 351.023 1751.78 351.76C1752 351.949 1752.25 352.082 1752.49 352.142C1752.74 352.202 1752.96 352.186 1753.14 352.096C1753.9 351.733 1753.86 350.996 1753.01 349.886C1752.26 348.88 1751.25 348.104 1750.08 347.643C1738.79 343.116 1728.39 338.935 1718.88 335.102C1716.4 334.109 1714.64 332.737 1713.6 330.985C1712.4 328.978 1711.58 326.767 1711.15 324.354C1709.55 323.372 1709.01 321.994 1709.55 320.222C1707.2 316.217 1705.62 312.229 1704.82 308.257C1704.42 306.281 1704.89 306.046 1706.23 307.552C1707.16 308.598 1708.26 309.239 1709.53 309.474C1710.88 309.72 1711.62 309.858 1711.72 309.89C1719.49 312.047 1726.62 311.268 1733.11 307.552C1736.82 305.427 1739.25 302.763 1740.41 299.559C1741.77 295.843 1741.49 291.919 1739.56 287.787C1738.49 288.16 1737.77 287.957 1737.4 287.178C1735.88 283.964 1733.65 281.679 1730.73 280.323C1728.87 279.447 1725.89 279.041 1721.78 279.105C1713.73 279.233 1705.69 279.372 1697.65 279.522C1697.24 279.532 1696.74 279.676 1696.14 279.954L1692.33 281.78C1699.83 281.887 1707.32 281.892 1714.81 281.796C1714.92 281.796 1717.2 281.647 1721.65 281.348C1732.57 280.622 1737.47 286.094 1736.35 297.765C1736.29 298.297 1736.09 298.794 1735.75 299.191C1732.06 303.59 1727.31 306.217 1721.49 307.071C1715.49 308.193 1709.81 307.36 1704.44 304.573C1702.43 303.526 1701.2 301.935 1700.74 299.8C1698.1 294.92 1694.6 289.767 1690.24 284.343C1689.65 283.617 1689.68 282.805 1690.33 281.908C1688.44 281.567 1687.19 280.531 1686.57 278.801C1681.49 274.786 1676.13 271.161 1670.48 267.925C1664.3 264.38 1658.31 262.143 1652.5 261.214C1638.1 258.907 1624.47 261.753 1611.61 269.751ZM1706.34 330.361C1705.93 331.055 1705.79 331.813 1705.94 332.635C1708.43 332.859 1710.22 333.868 1711.32 335.662C1711.56 336.036 1712.27 337.793 1713.47 340.932C1714.44 343.495 1715.21 346.373 1715.77 349.565C1715.87 350.099 1716.08 350.585 1716.41 351.023C1717.06 351.899 1717.61 352.924 1718.06 354.098C1722.14 364.809 1726.82 375.284 1732.1 385.524C1732.29 385.882 1732.37 386.279 1732.36 386.68C1732.35 387.08 1732.24 387.47 1732.04 387.815C1730.59 390.281 1730.33 392.545 1731.27 394.606C1731.89 395.973 1732.22 396.71 1732.25 396.816C1735.57 406.63 1738.44 413.523 1740.86 417.495C1743.03 421.04 1744.41 424.147 1745.01 426.817C1745.06 427.033 1745.04 427.264 1744.95 427.479C1744.86 427.694 1744.7 427.882 1744.5 428.018C1742.38 429.481 1741.7 431.312 1742.46 433.512C1744.13 438.328 1745.79 443.149 1747.46 447.976C1748.98 452.386 1750.44 457.287 1751.83 462.68C1753.7 469.973 1755.72 477.229 1757.91 484.447C1760.1 491.698 1761.86 498.532 1763.18 504.949C1764.6 511.88 1766.07 518.799 1767.58 525.708C1767.95 527.363 1767.21 529.328 1765.39 531.602C1765.06 532.024 1764.9 532.528 1764.94 533.012C1765.19 535.35 1765.93 538.922 1767.18 543.727C1768.77 549.825 1769.37 558.207 1768.98 568.874C1768.92 570.466 1769.01 572.041 1769.25 573.6C1769.47 575.18 1769.69 576.76 1769.89 578.341C1770.16 580.572 1770.2 582.932 1770.02 585.42C1769.58 591.347 1769.18 597.118 1768.83 602.735C1768.82 602.958 1768.75 603.174 1768.63 603.366C1768.51 603.559 1768.35 603.721 1768.16 603.84C1764.84 605.848 1762.95 608.117 1762.49 610.648C1762.13 612.58 1761.93 613.6 1761.9 613.707C1760.34 618.651 1758.87 623.622 1757.48 628.619C1755.79 634.716 1754.18 639.634 1752.63 643.371C1747.7 655.256 1742.31 665.053 1736.46 672.763C1732.34 678.209 1726.39 683.067 1718.61 687.339C1716.16 688.684 1713.66 690.27 1711.1 692.096C1707.86 694.413 1705.21 695.812 1703.14 696.292C1700.49 696.901 1696.26 698.401 1690.43 700.793C1685.84 702.683 1679.8 704.189 1672.31 705.31C1670.06 705.641 1667.19 706.282 1663.68 707.232C1660.82 708.012 1657.91 708.545 1654.95 708.834C1649 709.432 1645.91 709.747 1645.68 709.779C1633.66 711.349 1622.13 711.525 1611.08 710.307C1598.84 708.951 1587.43 705.006 1576.85 698.471C1572.12 695.534 1567.74 691.861 1563.71 687.451C1559.81 683.19 1556.26 678.647 1553.06 673.82C1545.14 661.924 1538.46 649.388 1533.01 636.211C1531.14 631.662 1529.73 627.391 1528.8 623.397C1527.83 619.19 1527.05 614.748 1526.45 610.071C1526.35 609.302 1526.11 608.587 1525.73 607.925C1524.65 606.088 1523.95 604.315 1523.62 602.607C1523.6 602.5 1523.44 600.621 1523.15 596.969C1522.35 586.889 1523.29 576.974 1525.95 567.225C1526.3 565.997 1526.57 564.662 1526.79 563.22C1526.99 561.875 1527.25 560.535 1527.56 559.2C1528 557.257 1528.16 555.254 1528.04 553.194C1527.72 547.833 1528.39 542.617 1530.05 537.545C1531.13 534.266 1531.85 531.293 1532.2 528.623C1532.72 524.683 1533.55 520.801 1534.7 516.978C1534.77 516.748 1534.78 516.5 1534.74 516.254C1534.7 516.008 1534.61 515.768 1534.47 515.553C1533.46 513.972 1533.21 512.387 1533.74 510.796C1536.78 501.527 1538.94 493.15 1540.24 485.665C1541.06 480.881 1543.02 472.221 1546.13 459.684C1546.15 459.599 1546.32 458.216 1546.66 455.536C1546.83 454.126 1547.32 452.658 1548.14 451.131C1549.06 449.423 1550.27 446.417 1551.78 442.113C1552.73 439.412 1553.97 436.427 1555.51 433.16C1559.07 425.61 1561.76 417.735 1563.56 409.534C1565.67 399.967 1568.14 390.5 1570.99 381.135C1571.61 379.107 1571.59 377.099 1570.94 375.113C1570.78 374.609 1570.8 374.083 1570.99 373.639C1572.12 371.183 1573.91 366.245 1576.36 358.823C1579.94 347.974 1583.44 337.099 1586.84 326.196C1586.98 325.748 1587.33 323.708 1587.9 320.077C1588.23 317.931 1589.08 315.972 1590.46 314.199C1590.59 314.029 1590.67 313.817 1590.67 313.591C1590.68 313.365 1590.61 313.136 1590.49 312.934C1589.91 312.005 1589.85 311.07 1590.32 310.131C1591.01 308.732 1591.38 307.963 1591.42 307.824C1594.21 298.395 1598.71 289.97 1604.93 282.549C1608.16 278.726 1610.44 276.169 1611.77 274.877C1614.42 272.325 1617.36 270.477 1620.59 269.335C1622.45 268.673 1624 268.027 1625.25 267.397C1627.37 266.339 1628.89 265.688 1629.8 265.442C1635.93 263.851 1642.11 263.285 1648.32 263.745C1654.02 264.161 1659.85 265.896 1665.8 268.95C1671.85 272.047 1677.25 275.645 1682.02 279.746C1690.03 286.612 1695.97 295.352 1699.84 305.966C1701.75 311.199 1703.12 315.155 1703.94 317.835C1704.48 319.554 1705.28 321.338 1706.34 323.185C1707.34 324.904 1708.16 326.709 1708.81 328.599C1709.56 330.788 1708.73 331.375 1706.34 330.361ZM1564.33 293.265C1562.28 290.809 1561.09 287.835 1560.74 284.343C1560.47 281.364 1561.9 279.596 1565.05 279.041C1569.83 278.208 1574.64 277.541 1579.46 277.039C1581.45 276.836 1583.17 276.793 1584.63 276.911C1587.71 277.156 1589.41 277.269 1589.74 277.247C1594.06 277.076 1598.35 276.745 1602.6 276.254C1604.11 276.073 1604.38 276.564 1603.4 277.728C1599.36 282.48 1595.63 288.262 1592.21 295.074C1591.8 295.88 1591.12 296.516 1590.28 296.868C1583.95 299.495 1577.87 299.906 1572.03 298.102C1568.73 297.087 1566.17 295.475 1564.33 293.265ZM1517.82 961.843C1518.02 963.648 1517.34 964.267 1515.76 963.701C1515.53 963.618 1515.33 963.473 1515.17 963.28C1515.01 963.086 1514.9 962.851 1514.84 962.596C1514.26 959.638 1514.96 959.099 1516.96 960.978C1519.3 954.443 1523.56 948.271 1529.73 942.462C1534.11 938.33 1538.47 934.956 1542.83 932.339C1545.25 930.877 1549.84 929.067 1556.6 926.91C1563.39 924.742 1569.92 921.944 1576.19 918.516C1579.74 916.573 1582.53 915.345 1584.57 914.833C1586.46 914.352 1587.9 913.498 1588.89 912.27C1589.28 911.811 1589.67 911.469 1590.08 911.245C1596.22 907.966 1601.66 903.754 1606.37 898.607C1606.83 898.116 1608.03 896.914 1609.98 895.003C1619.04 886.14 1625.78 875.756 1630.2 863.849C1636.93 845.739 1639.68 826.999 1638.44 807.629C1638.1 802.29 1637.79 796.945 1637.51 791.595C1637.22 786.032 1636.59 780.73 1635.63 775.69C1634.21 768.162 1632.72 760.644 1631.16 753.138C1628.68 741.231 1626.75 728.839 1625.36 715.962C1625.35 715.854 1625.36 715.745 1625.4 715.643C1625.43 715.54 1625.48 715.445 1625.56 715.365C1625.63 715.285 1625.72 715.221 1625.82 715.178C1625.92 715.134 1626.02 715.112 1626.13 715.113C1634.69 715.006 1643.77 714.269 1653.38 712.902C1653.75 712.85 1654.12 712.883 1654.47 712.999C1654.83 713.115 1655.15 713.311 1655.41 713.572C1655.67 713.832 1655.87 714.15 1655.99 714.501C1656.11 714.852 1656.15 715.225 1656.1 715.593C1655.56 719.811 1654.98 724.59 1654.37 729.929C1653.73 735.556 1653.76 741.173 1654.45 746.779C1655.66 756.517 1656.96 766.251 1658.36 775.978C1659.54 784.137 1660.53 792.316 1661.31 800.517C1662.22 810.202 1662.4 818.414 1661.83 825.152C1660.79 837.752 1658.02 850.016 1653.52 861.943C1652.94 863.481 1652.05 866.076 1650.85 869.728C1649.85 872.814 1648.73 875.334 1647.51 877.288C1644.42 882.2 1639.1 889.776 1631.54 900.016C1631.5 900.059 1631.04 900.743 1630.17 902.067C1628.91 903.967 1626.92 905.954 1624.19 908.025C1615.42 914.699 1607.75 919.702 1601.17 923.033C1597.06 925.116 1586.48 928.965 1569.44 934.582C1569.39 934.603 1565.55 935.687 1557.93 937.833C1550.37 939.948 1543.4 943.279 1537.02 947.828C1533.16 950.572 1529.91 952.82 1527.27 954.571C1523.96 956.761 1520.81 959.184 1517.82 961.843Z" fill="#222222" fill-opacity="0.996"/>
<path d="M1611.61 269.751C1609.42 271.502 1607.01 272.383 1604.37 272.394C1601.68 272.405 1600.29 272.415 1600.18 272.426C1595.86 272.736 1590.92 272.57 1585.37 271.929C1575.31 270.776 1565.62 272.682 1556.28 277.648C1556.79 279.239 1557.92 279.399 1559.66 278.128C1560.49 277.519 1561.4 277.06 1562.38 276.751C1569.85 274.444 1577.78 273.601 1586.17 274.22C1589.4 274.466 1592.14 274.551 1594.38 274.476C1596.21 274.412 1598.03 274.369 1599.86 274.348C1600.49 274.348 1602.27 274.588 1605.21 275.069C1608.92 275.667 1611.05 273.894 1611.61 269.751Z" fill="#454E4D" fill-opacity="0.996"/>
<path d="M1686.57 278.801C1687.19 280.531 1688.44 281.567 1690.33 281.908L1692.33 281.78L1696.14 279.954C1696.74 279.676 1697.24 279.532 1697.65 279.522C1705.69 279.372 1713.73 279.233 1721.78 279.105C1725.89 279.041 1728.87 279.447 1730.73 280.323C1733.65 281.679 1735.88 283.964 1737.4 287.178C1737.77 287.957 1738.49 288.16 1739.56 287.787C1735.99 279.789 1729.97 276.179 1721.51 276.959C1717.34 277.354 1715.23 277.552 1715.17 277.552C1705.74 277.883 1696.21 278.299 1686.57 278.801Z" fill="#454E4D" fill-opacity="0.996"/>
<path d="M1624.77 286.97C1622.24 288.753 1622.39 289.362 1625.2 288.796C1625.63 288.71 1626.07 288.545 1626.52 288.299C1628.39 287.263 1629.79 286.713 1630.69 286.649C1632.89 286.479 1637.81 286.457 1645.46 286.585C1647.62 286.628 1649.73 287.002 1651.76 287.706C1653.81 288.411 1655.86 289.127 1657.91 289.853C1658.67 290.12 1659.27 290.152 1659.72 289.949C1660.28 289.714 1660.24 289.41 1659.63 289.036C1656.1 286.9 1653 285.571 1650.31 285.048C1642.65 283.553 1634.58 283.985 1626.1 286.345C1625.61 286.484 1625.17 286.692 1624.77 286.97Z" fill="black" fill-opacity="0.996"/>
<path d="M1608.22 290.253C1610.22 292.175 1612.62 293.243 1615.42 293.457C1616.33 290.83 1615.66 288.934 1613.4 287.771C1613.18 287.659 1612.93 287.596 1612.68 287.585C1612.42 287.574 1612.16 287.615 1611.91 287.706C1610.49 288.262 1609.26 289.111 1608.22 290.253Z" fill="#848683" fill-opacity="0.996"/>
<path d="M1672.96 290.093C1675.03 293.318 1677.88 295.454 1681.51 296.5C1680.89 291.802 1678.04 289.666 1672.96 290.093Z" fill="#848683" fill-opacity="0.996"/>
<path d="M1672.96 290.093C1670.56 296.66 1672.75 300.419 1679.53 301.369C1679.78 301.403 1680.03 301.37 1680.25 301.274C1680.48 301.178 1680.67 301.022 1680.81 300.825C1681.76 299.404 1681.99 297.963 1681.51 296.5C1677.88 295.454 1675.03 293.318 1672.96 290.093Z" fill="black" fill-opacity="0.996"/>
<path d="M1608.22 290.253C1604.35 294.236 1604.93 297.504 1609.94 300.056C1610.25 300.21 1610.6 300.261 1610.93 300.204C1611.27 300.146 1611.58 299.982 1611.82 299.735C1613.6 297.877 1614.8 295.785 1615.42 293.457C1612.62 293.243 1610.22 292.175 1608.22 290.253Z" fill="black" fill-opacity="0.996"/>
<path d="M1634.7 300.328C1635.89 301.844 1637.49 302.645 1639.5 302.731C1640.9 302.378 1641.31 300.841 1640.73 298.118C1640.4 296.548 1639.77 296.42 1638.84 297.733C1637.65 299.431 1636.27 300.296 1634.7 300.328Z" fill="#454E4D" fill-opacity="0.996"/>
<path d="M1640.36 319.084C1634.41 317.312 1633.29 314.146 1637 309.586C1637.01 307.066 1637.85 304.781 1639.5 302.731C1637.49 302.645 1635.89 301.844 1634.7 300.328C1633.61 297.936 1632.02 297.162 1629.93 298.006C1629.7 298.097 1629.52 298.259 1629.4 298.466C1629.28 298.672 1629.23 298.911 1629.27 299.143C1629.6 301.225 1630.8 302.789 1632.87 303.836C1634.87 304.84 1635.24 306.356 1633.99 308.385C1633.01 309.976 1632.59 311.706 1632.73 313.574C1632.88 315.443 1632.16 317.104 1630.57 318.556C1628.18 320.745 1625.73 322.854 1623.22 324.883C1621.03 326.655 1620.95 327.622 1622.99 327.782C1623.6 327.825 1624.25 327.739 1624.95 327.526C1628.77 326.372 1631.62 324.044 1633.51 320.542C1633.63 320.313 1633.8 320.114 1634.01 319.958C1634.22 319.802 1634.46 319.694 1634.71 319.64C1634.97 319.587 1635.23 319.59 1635.49 319.649C1635.74 319.708 1635.98 319.821 1636.19 319.981C1637.55 321.028 1638.81 322.181 1639.96 323.441C1641.68 325.31 1642.93 326.436 1643.71 326.821C1645.54 327.686 1647.52 327.771 1649.65 327.077C1650.29 326.863 1650.71 326.554 1650.9 326.148C1651.16 325.625 1650.99 325.155 1650.4 324.739C1650.11 324.525 1649.68 324.391 1649.11 324.338C1645.41 323.975 1642.5 322.224 1640.36 319.084Z" fill="black" fill-opacity="0.996"/>
<path d="M1700.74 299.8C1701.2 301.935 1702.43 303.526 1704.44 304.573C1709.81 307.36 1715.49 308.193 1721.49 307.071C1719.02 306.089 1716.78 305.662 1714.75 305.79C1714.2 305.822 1713.7 305.731 1713.23 305.518L1700.74 299.8Z" fill="#848683" fill-opacity="0.996"/>
<path d="M1640.36 319.084C1638.43 316.5 1637.31 313.334 1637 309.586C1633.29 314.146 1634.41 317.312 1640.36 319.084Z" fill="#454E4D" fill-opacity="0.996"/>
<path d="M1594.24 311.893C1592.09 313.057 1591.58 313.687 1592.69 313.783C1593.05 313.815 1593.49 313.719 1594.01 313.494C1595.91 312.683 1597.88 312.176 1599.92 311.973C1602.13 311.748 1603.09 311.53 1602.8 311.316C1602.52 311.102 1600.54 311.054 1596.86 311.172C1595.94 311.204 1595.06 311.444 1594.24 311.893Z" fill="#0C0D11" fill-opacity="0.725"/>
<path d="M1688.09 317.433C1681.44 316.104 1676.13 314.632 1676.23 314.146C1676.32 313.661 1681.79 314.345 1688.44 315.674C1695.09 317.004 1700.41 318.475 1700.31 318.961C1700.21 319.447 1694.74 318.763 1688.09 317.433Z" fill="#0F1415" fill-opacity="0.537"/>
<path d="M1709.55 320.222C1709.01 321.994 1709.55 323.372 1711.15 324.354C1712.5 324.194 1713.84 324.327 1715.15 324.755C1715.81 324.424 1716.1 323.868 1716.01 323.089L1709.55 320.222Z" fill="#848683" fill-opacity="0.996"/>
<path d="M1705.94 332.635C1705.79 331.813 1705.93 331.055 1706.34 330.361C1696.62 327.467 1686.85 324.755 1677.04 322.224C1675.27 321.765 1674.64 321.802 1675.14 322.336C1675.33 322.549 1675.63 322.72 1676.04 322.848C1676.95 323.137 1677.88 323.398 1678.82 323.633C1679.57 323.836 1680.44 324.215 1681.43 324.771C1683.01 325.668 1685.31 326.575 1688.33 327.493C1694.18 329.266 1700.05 330.98 1705.94 332.635Z" fill="#0F1415" fill-opacity="0.537"/>
<path d="M1716.01 323.089C1716.1 323.868 1715.81 324.424 1715.15 324.755C1717.52 325.78 1719.93 326.703 1722.39 327.526C1722.48 327.558 1724.23 328.214 1727.64 329.496C1730.54 330.596 1733.54 331.22 1736.65 331.37C1737.23 331.402 1737.31 331.22 1736.89 330.825C1735.1 329.17 1732.92 328.321 1730.36 328.278C1729.8 328.268 1729.31 328.14 1728.87 327.894C1724.84 325.619 1720.55 324.018 1716.01 323.089Z" fill="#0C0D11" fill-opacity="0.725"/>
<path d="M1549.86 326.324C1550.26 326.431 1550.5 326.276 1550.56 325.86C1550.57 325.772 1550.57 325.683 1550.54 325.597C1550.51 325.511 1550.46 325.43 1550.4 325.36C1550.33 325.29 1550.25 325.231 1550.16 325.187C1550.07 325.144 1549.98 325.117 1549.87 325.107C1547.4 324.893 1544.79 325.625 1542.05 327.301C1540.01 328.551 1537.82 328.887 1535.48 328.31C1534.72 328.129 1533.5 328.962 1531.8 330.809C1530.58 332.123 1530.79 332.518 1532.42 331.994L1537.87 330.248C1538.83 329.939 1539.31 329.784 1539.32 329.784C1542.76 329.677 1545.83 328.577 1548.53 326.484C1548.68 326.366 1548.88 326.289 1549.12 326.261C1549.35 326.233 1549.6 326.255 1549.86 326.324Z" fill="#0C0D11" fill-opacity="0.725"/>
<path d="M1580.58 326.148C1576.13 327.782 1571.6 329.079 1566.99 330.04C1562.12 331.065 1558.26 332.123 1555.4 333.212C1551.64 334.653 1547.9 336.138 1544.19 337.665C1545.99 337.366 1547.08 337.958 1547.44 339.442L1580.73 327.894L1580.58 326.148Z" fill="#0F1415" fill-opacity="0.537"/>
<path d="M1635.39 333.516C1632.29 333.57 1629.76 333.004 1629.75 332.253C1629.74 331.501 1632.24 330.847 1635.35 330.793C1638.45 330.739 1640.97 331.305 1640.99 332.056C1641 332.808 1638.5 333.462 1635.39 333.516Z" fill="black" fill-opacity="0.996"/>
<path d="M1544.19 337.664C1538.94 340.708 1534.69 342.523 1531.43 343.11C1528.95 343.559 1527.24 344.627 1526.27 346.314C1526 346.794 1526.15 347.019 1526.72 346.987C1529.97 346.773 1533.32 345.497 1536.79 343.158C1537.82 342.468 1539.07 342.194 1540.28 342.39C1541.13 342.518 1541.72 342.24 1542.08 341.557C1542.19 341.345 1542.35 341.168 1542.53 341.047C1542.72 340.925 1542.93 340.863 1543.13 340.868C1544.75 340.889 1546.18 340.414 1547.44 339.442C1547.08 337.958 1545.99 337.366 1544.19 337.664Z" fill="#0C0D11" fill-opacity="0.725"/>
<path d="M1544.53 354.21C1543.9 354.296 1543.27 354.6 1542.64 355.123C1541.07 356.437 1539.1 357.136 1536.75 357.222C1536.19 357.242 1535.69 357.43 1535.35 357.75C1533.06 359.886 1533.68 360.446 1537.21 359.432C1537.75 359.283 1538.45 359.144 1539.29 359.016C1541.62 358.653 1543.59 357.649 1545.2 356.004C1545.56 355.629 1546.03 355.377 1546.53 355.284C1548.94 354.792 1551.15 353.89 1553.17 352.577C1555.87 350.836 1557.9 349.688 1559.24 349.133C1563.38 347.414 1567.44 345.39 1571.41 343.062C1571.69 342.902 1571.67 342.774 1571.38 342.678C1568.91 341.962 1566.52 342.181 1564.22 343.335C1557.94 346.453 1551.88 349.934 1546.02 353.778C1545.72 353.981 1545.22 354.125 1544.53 354.21Z" fill="#0F1415" fill-opacity="0.537"/>
<path d="M1605.08 507.224C1606.44 507.768 1606.84 508.836 1606.28 510.427L1617.6 507.048C1617.83 506.977 1618.08 506.964 1618.32 507.01C1618.55 507.056 1618.78 507.158 1618.97 507.309C1619.16 507.46 1619.31 507.655 1619.41 507.878C1619.51 508.1 1619.55 508.343 1619.54 508.585C1619.28 512.526 1619.08 516.231 1618.94 519.701C1618.87 521.538 1618.01 522.408 1616.38 522.312C1615.86 522.281 1615.36 522.43 1615 522.729C1613.45 524.053 1611.87 524.378 1610.28 523.706C1607.03 522.317 1604.6 519.648 1603.01 515.697L1596.54 511.388C1591.25 506.487 1586.72 500.972 1582.97 494.842C1582.7 494.394 1582.3 494.041 1581.83 493.833C1578.37 492.242 1577.35 492.958 1578.77 495.98C1579.09 496.642 1579.66 497.427 1580.47 498.334C1581.43 499.391 1582.29 500.523 1583.05 501.73C1585.41 505.521 1588.23 508.884 1591.52 511.821C1595.1 514.992 1597.29 516.978 1598.08 517.779C1600.18 519.861 1602.33 521.89 1604.53 523.866C1606.38 525.521 1608.35 526.439 1610.46 526.621C1613.3 526.856 1616.53 526.706 1620.14 526.172C1620.71 526.089 1621.24 525.827 1621.65 525.425C1622.06 525.022 1622.33 524.499 1622.43 523.93C1623.61 517.053 1623.96 510.038 1623.49 502.883C1622.77 492.066 1621.97 481.254 1621.09 470.448C1620.52 463.486 1619.37 457.357 1617.63 452.06C1617.45 451.494 1617.19 451.067 1616.86 450.779C1615.89 449.925 1615.62 450.731 1616.04 453.197C1616.55 456.038 1616.87 458.894 1617.01 461.767C1617.19 465.312 1617.41 468.152 1617.68 470.288C1619 480.539 1619.45 490.833 1619.02 501.169C1619.01 501.42 1618.94 501.663 1618.82 501.876C1618.69 502.089 1618.51 502.264 1618.3 502.387C1614.24 504.8 1609.83 506.412 1605.08 507.224Z" fill="#222222" fill-opacity="0.996"/>
<path d="M1689.61 464.954C1691.04 463.256 1692.02 461.345 1692.56 459.22C1692.63 458.941 1692.62 458.656 1692.53 458.422C1692.45 458.187 1692.29 458.02 1692.09 457.955C1691.74 457.826 1691.39 457.955 1691.04 458.339C1688.49 461.083 1686.25 464.18 1684.33 467.629C1681.64 472.477 1679.76 475.771 1678.68 477.512C1676.63 480.811 1674.8 484.228 1673.19 487.763C1673.06 488.03 1671.93 490.4 1669.79 494.874C1665.59 503.652 1664.03 512.995 1665.12 522.905C1665.16 523.268 1665.52 523.866 1666.19 524.699C1666.35 524.886 1666.46 525.107 1666.53 525.349C1666.6 525.592 1666.62 525.85 1666.59 526.108C1666.31 528.874 1667.56 530.609 1670.32 531.314C1671.83 531.698 1674.4 531.752 1678.04 531.474C1678.28 531.454 1678.53 531.381 1678.75 531.259C1678.97 531.138 1679.16 530.971 1679.32 530.769C1682.86 526.284 1686.76 522.996 1691.02 520.903C1692.79 520.027 1694.3 518.826 1695.55 517.299C1700.69 510.988 1706.67 506.637 1713.5 504.245C1713.75 504.156 1713.96 504.016 1714.13 503.837C1714.31 503.658 1714.42 503.446 1714.48 503.219C1714.95 501.297 1714.18 500.432 1712.19 500.625C1711.43 500.689 1710.49 500.961 1709.37 501.442C1701.78 504.645 1694.9 510.144 1688.73 517.939C1688.64 518.054 1688.53 518.147 1688.4 518.212C1688.27 518.277 1688.13 518.312 1687.98 518.315C1687.84 518.318 1687.69 518.289 1687.56 518.229C1687.43 518.17 1687.31 518.082 1687.21 517.971C1682.51 512.44 1677.98 508.441 1673.6 505.974C1671.85 504.992 1671.34 503.561 1672.07 501.682C1674.15 496.268 1676.53 490.966 1679.21 485.777C1679.23 485.734 1680.53 483.513 1683.11 479.113C1684.82 476.188 1686 473.417 1686.65 470.8C1687.18 468.622 1688.17 466.673 1689.61 464.954ZM1673.07 526.188C1672.67 527.737 1671.83 528.265 1670.54 527.774C1670.33 527.689 1670.13 527.543 1669.97 527.348C1669.81 527.153 1669.68 526.915 1669.62 526.653C1668.09 520.63 1668.61 514.816 1671.18 509.21C1671.23 509.115 1671.29 509.03 1671.37 508.96C1671.45 508.89 1671.54 508.837 1671.64 508.804C1671.74 508.771 1671.85 508.759 1671.95 508.768C1672.06 508.777 1672.16 508.808 1672.26 508.858C1676.12 510.833 1679.37 513.535 1682.01 516.962C1682.07 517.048 1682.53 517.566 1683.37 518.516C1684.77 520.118 1684.43 521.495 1682.34 522.648C1681.87 522.905 1681.48 523.236 1681.16 523.642C1679.29 525.948 1676.89 526.626 1673.97 525.676C1673.88 525.647 1673.78 525.638 1673.69 525.649C1673.59 525.659 1673.5 525.689 1673.42 525.737C1673.33 525.785 1673.26 525.85 1673.2 525.927C1673.14 526.005 1673.1 526.094 1673.07 526.188Z" fill="#272826" fill-opacity="0.996"/>
<path d="M1605.08 507.224C1603.78 507.587 1602.62 508.185 1601.62 509.018C1601.54 509.082 1601.09 509.669 1600.24 510.78C1599.44 511.847 1598.21 512.05 1596.54 511.388L1603.01 515.697C1602.63 512.942 1603.72 511.185 1606.28 510.427C1606.84 508.836 1606.44 507.768 1605.08 507.224Z" fill="#454E4D" fill-opacity="0.996"/>
<path d="M1573.06 602.927C1572.94 603.771 1573.19 604.438 1573.81 604.929C1574.2 605.239 1574.82 605.357 1575.65 605.282C1580.23 604.823 1584.4 605.693 1588.15 607.893L1586.27 600.989C1585.55 598.405 1584.52 598.437 1583.16 601.085C1582.15 603.082 1580.76 603.087 1579.01 601.101C1578.84 600.903 1578.61 600.751 1578.36 600.661C1578.11 600.571 1577.84 600.544 1577.58 600.584C1577.32 600.624 1577.08 600.729 1576.87 600.889C1576.66 601.05 1576.49 601.26 1576.39 601.502C1575.67 603.114 1574.56 603.589 1573.06 602.927Z" fill="#848683" fill-opacity="0.996"/>
<path d="M1692.93 603.312C1695.72 606.803 1698.33 608.699 1700.74 608.998C1705.78 609.617 1709.49 610.685 1711.88 612.201C1712.14 609.98 1711.86 607.615 1711.05 605.106C1711 604.94 1710.9 604.791 1710.78 604.671C1710.65 604.551 1710.49 604.464 1710.32 604.417C1710.14 604.37 1709.96 604.364 1709.78 604.4C1709.59 604.437 1709.42 604.514 1709.27 604.625L1705.72 607.284C1705.53 607.425 1705.3 607.519 1705.05 607.561C1704.8 607.602 1704.53 607.59 1704.26 607.524C1700.88 606.713 1698.18 604.849 1696.18 601.934C1695.17 600.482 1694.09 600.941 1692.93 603.312Z" fill="#848683" fill-opacity="0.996"/>
<path d="M1588.15 607.893C1584.4 605.693 1580.23 604.823 1575.65 605.282C1574.82 605.357 1574.2 605.239 1573.81 604.929C1573.19 604.438 1572.94 603.771 1573.06 602.927C1571.16 601.443 1569.78 601.747 1568.91 603.84C1568.73 604.283 1568.73 604.818 1568.91 605.346C1569.99 608.688 1570.58 612.1 1570.69 615.581C1570.73 617.215 1571.06 619.174 1571.66 621.459C1572.1 623.104 1572.43 625.09 1572.66 627.418C1574.29 644.439 1578.99 661.316 1586.76 678.048C1587.78 680.216 1588.94 681.572 1590.27 682.117C1591.84 682.768 1593.35 682.528 1594.8 681.396C1595.73 680.649 1596.47 679.474 1597.04 677.872C1598.66 673.249 1599.27 668.475 1598.85 663.553C1598.81 663.051 1598.88 662.538 1599.07 662.015C1599.81 659.965 1599.94 657.642 1599.47 655.048C1596.36 637.909 1592.58 622.191 1588.15 607.893ZM1579.27 610.151C1581.67 609.073 1583.62 609.329 1585.13 610.92C1585.94 611.774 1586.61 613.355 1587.15 615.661C1588.44 621.246 1589.86 626.798 1591.42 632.319C1591.99 634.359 1592.47 637.076 1592.88 640.472C1593.21 643.238 1593.78 645.966 1594.59 648.657C1595.84 652.789 1596.23 656.927 1595.78 661.07C1595.55 663.035 1595.28 665.715 1594.98 669.111C1594.72 671.834 1594.08 674.487 1593.07 677.071C1592.18 679.325 1591.42 679.426 1590.76 677.376C1590.08 675.197 1589.14 673.158 1587.93 671.257C1586.42 668.865 1585.41 666.911 1584.92 665.395C1581.27 654.012 1578.58 642.405 1576.85 630.573C1575.9 624.081 1574.97 617.588 1574.07 611.096C1574.05 610.994 1574.06 610.89 1574.09 610.792C1574.12 610.693 1574.17 610.603 1574.23 610.526C1574.3 610.45 1574.38 610.39 1574.47 610.35C1574.56 610.31 1574.66 610.291 1574.75 610.295L1577.76 610.439C1578.3 610.461 1578.8 610.365 1579.27 610.151Z" fill="#131311" fill-opacity="0.996"/>
<path d="M1692.93 603.312C1692.46 608.736 1691.81 614.123 1690.99 619.473C1689.74 627.695 1688.96 633.067 1688.65 635.587C1686.73 651.209 1685.42 661.033 1684.73 665.058C1683.9 669.938 1684.49 675.673 1686.52 682.261C1686.91 683.521 1687.55 684.637 1688.44 685.609C1691.6 689.015 1694.71 688.919 1697.76 685.32C1699.71 683.014 1701.05 680.382 1701.76 677.424C1703.91 668.625 1706.1 659.831 1708.34 651.043C1711.02 640.515 1712.2 627.567 1711.88 612.201C1709.49 610.685 1705.78 609.617 1700.74 608.998C1698.33 608.699 1695.72 606.803 1692.93 603.312ZM1695.54 623.013C1696.34 620.183 1696.47 617.781 1695.94 615.805C1695.52 614.257 1695.73 612.975 1696.58 611.961C1696.71 611.796 1696.91 611.687 1697.14 611.652C1697.37 611.617 1697.62 611.658 1697.84 611.769C1700.65 613.136 1703.58 613.552 1706.63 613.018C1706.74 613 1706.86 613.005 1706.96 613.034C1707.07 613.064 1707.17 613.116 1707.26 613.187C1707.35 613.258 1707.42 613.347 1707.46 613.448C1707.51 613.549 1707.54 613.659 1707.54 613.771C1707.92 628.069 1706.18 642.095 1702.34 655.848C1702.14 656.596 1701.71 658.566 1701.04 661.759C1700.22 665.742 1699.18 669.661 1697.92 673.516C1697.89 673.622 1697.61 675.021 1697.09 677.712C1696.76 679.41 1695.93 681.097 1694.61 682.774C1692.9 684.941 1691.51 684.754 1690.44 682.213C1689.41 679.736 1688.75 677.184 1688.48 674.557C1688.27 672.72 1688.41 670.136 1688.89 666.804C1690.32 656.927 1691.61 647.034 1692.75 637.124C1693.31 632.34 1694.23 627.637 1695.54 623.013Z" fill="#272826" fill-opacity="0.996"/>
<path d="M1517.82 961.843C1517.2 961.886 1516.91 961.598 1516.96 960.978C1514.96 959.099 1514.26 959.638 1514.84 962.596C1514.9 962.851 1515.01 963.086 1515.17 963.28C1515.33 963.473 1515.53 963.618 1515.76 963.701C1517.34 964.267 1518.02 963.648 1517.82 961.843Z" fill="#454E4D" fill-opacity="0.996"/>
<defs>
<filter id="filter0_i_41_213" x="1620" y="173" width="40" height="44" filterUnits="userSpaceOnUse" color-interpolation-filters="sRGB">
<feFlood flood-opacity="0" result="BackgroundImageFix"/>
<feBlend mode="normal" in="SourceGraphic" in2="BackgroundImageFix" result="shape"/>
<feColorMatrix in="SourceAlpha" type="matrix" values="0 0 0 0 0 0 0 0 0 0 0 0 0 0 0 0 0 0 127 0" result="hardAlpha"/>
<feOffset dy="4"/>
<feGaussianBlur stdDeviation="2"/>
<feComposite in2="hardAlpha" operator="arithmetic" k2="-1" k3="1"/>
<feColorMatrix type="matrix" values="0 0 0 0 0 0 0 0 0 0 0 0 0 0 0 0 0 0 0.25 0"/>
<feBlend mode="normal" in2="shape" result="effect1_innerShadow_41_213"/>
</filter>
<filter id="filter1_i_41_213" x="85" y="977" width="40" height="44" filterUnits="userSpaceOnUse" color-interpolation-filters="sRGB">
<feFlood flood-opacity="0" result="BackgroundImageFix"/>
<feBlend mode="normal" in="SourceGraphic" in2="BackgroundImageFix" result="shape"/>
<feColorMatrix in="SourceAlpha" type="matrix" values="0 0 0 0 0 0 0 0 0 0 0 0 0 0 0 0 0 0 127 0" result="hardAlpha"/>
<feOffset dy="4"/>
<feGaussianBlur stdDeviation="2"/>
<feComposite in2="hardAlpha" operator="arithmetic" k2="-1" k3="1"/>
<feColorMatrix type="matrix" values="0 0 0 0 0 0 0 0 0 0 0 0 0 0 0 0 0 0 0.25 0"/>
<feBlend mode="normal" in2="shape" result="effect1_innerShadow_41_213"/>
</filter>
<filter id="filter2_i_41_213" x="497" y="875" width="40" height="44" filterUnits="userSpaceOnUse" color-interpolation-filters="sRGB">
<feFlood flood-opacity="0" result="BackgroundImageFix"/>
<feBlend mode="normal" in="SourceGraphic" in2="BackgroundImageFix" result="shape"/>
<feColorMatrix in="SourceAlpha" type="matrix" values="0 0 0 0 0 0 0 0 0 0 0 0 0 0 0 0 0 0 127 0" result="hardAlpha"/>
<feOffset dy="4"/>
<feGaussianBlur stdDeviation="2"/>
<feComposite in2="hardAlpha" operator="arithmetic" k2="-1" k3="1"/>
<feColorMatrix type="matrix" values="0 0 0 0 0 0 0 0 0 0 0 0 0 0 0 0 0 0 0.25 0"/>
<feBlend mode="normal" in2="shape" result="effect1_innerShadow_41_213"/>
</filter>
<filter id="filter3_i_41_213" x="278" y="173" width="40" height="44" filterUnits="userSpaceOnUse" color-interpolation-filters="sRGB">
<feFlood flood-opacity="0" result="BackgroundImageFix"/>
<feBlend mode="normal" in="SourceGraphic" in2="BackgroundImageFix" result="shape"/>
<feColorMatrix in="SourceAlpha" type="matrix" values="0 0 0 0 0 0 0 0 0 0 0 0 0 0 0 0 0 0 127 0" result="hardAlpha"/>
<feOffset dy="4"/>
<feGaussianBlur stdDeviation="2"/>
<feComposite in2="hardAlpha" operator="arithmetic" k2="-1" k3="1"/>
<feColorMatrix type="matrix" values="0 0 0 0 0 0 0 0 0 0 0 0 0 0 0 0 0 0 0.25 0"/>
<feBlend mode="normal" in2="shape" result="effect1_innerShadow_41_213"/>
</filter>
<filter id="filter4_i_41_213" x="1383" y="875" width="40" height="44" filterUnits="userSpaceOnUse" color-interpolation-filters="sRGB">
<feFlood flood-opacity="0" result="BackgroundImageFix"/>
<feBlend mode="normal" in="SourceGraphic" in2="BackgroundImageFix" result="shape"/>
<feColorMatrix in="SourceAlpha" type="matrix" values="0 0 0 0 0 0 0 0 0 0 0 0 0 0 0 0 0 0 127 0" result="hardAlpha"/>
<feOffset dy="4"/>
<feGaussianBlur stdDeviation="2"/>
<feComposite in2="hardAlpha" operator="arithmetic" k2="-1" k3="1"/>
<feColorMatrix type="matrix" values="0 0 0 0 0 0 0 0 0 0 0 0 0 0 0 0 0 0 0.25 0"/>
<feBlend mode="normal" in2="shape" result="effect1_innerShadow_41_213"/>
</filter>
<filter id="filter5_i_41_213" x="1853" y="977" width="40" height="44" filterUnits="userSpaceOnUse" color-interpolation-filters="sRGB">
<feFlood flood-opacity="0" result="BackgroundImageFix"/>
<feBlend mode="normal" in="SourceGraphic" in2="BackgroundImageFix" result="shape"/>
<feColorMatrix in="SourceAlpha" type="matrix" values="0 0 0 0 0 0 0 0 0 0 0 0 0 0 0 0 0 0 127 0" result="hardAlpha"/>
<feOffset dy="4"/>
<feGaussianBlur stdDeviation="2"/>
<feComposite in2="hardAlpha" operator="arithmetic" k2="-1" k3="1"/>
<feColorMatrix type="matrix" values="0 0 0 0 0 0 0 0 0 0 0 0 0 0 0 0 0 0 0.25 0"/>
<feBlend mode="normal" in2="shape" result="effect1_innerShadow_41_213"/>
</filter>
</defs>
</svg>
