<?xml version="1.0" encoding="UTF-8"?>
<!DOCTYPE svg PUBLIC "-//W3C//DTD SVG 1.1//EN" "http://www.w3.org/Graphics/SVG/1.1/DTD/svg11.dtd">
<svg xmlns="http://www.w3.org/2000/svg" version="1.1" width="512px" height="512px" style="shape-rendering:geometricPrecision; text-rendering:geometricPrecision; image-rendering:optimizeQuality; fill-rule:evenodd; clip-rule:evenodd" xmlns:xlink="http://www.w3.org/1999/xlink">
<g><path style="opacity:0.998" fill="#8bc34a" d="M 238.5,31.5 C 299.007,28.2798 353.007,45.1131 400.5,82C 445.977,122.118 471.477,172.618 477,233.5C 482.816,307.077 459.982,369.911 408.5,422C 369.684,455.956 324.351,474.956 272.5,479C 212.068,482.407 158.068,465.74 110.5,429C 65.0231,388.882 39.5231,338.382 34,277.5C 28.1843,203.923 51.0177,141.089 102.5,89C 141.519,55.1527 186.852,35.986 238.5,31.5 Z"/></g>
<g><path style="opacity:1" fill="#ecedeb" d="M 363.5,161.5 C 376.692,161.857 383.192,168.524 383,181.5C 382.194,184.446 380.861,187.112 379,189.5C 326.473,242.361 273.639,294.861 220.5,347C 213.757,349.509 207.424,348.843 201.5,345C 176.972,320.805 152.805,296.305 129,271.5C 126.008,255.156 132.841,247.656 149.5,249C 151.5,250.333 153.5,251.667 155.5,253C 174.347,272.014 193.347,290.847 212.5,309.5C 260.653,261.847 308.653,214.014 356.5,166C 358.898,164.476 361.231,162.976 363.5,161.5 Z"/></g>
</svg>
