<?xml version="1.0" encoding="UTF-8"?>
<!DOCTYPE svg PUBLIC "-//W3C//DTD SVG 1.1//EN" "http://www.w3.org/Graphics/SVG/1.1/DTD/svg11.dtd">
<svg xmlns="http://www.w3.org/2000/svg" version="1.1" width="512px" height="512px" style="shape-rendering:geometricPrecision; text-rendering:geometricPrecision; image-rendering:optimizeQuality; fill-rule:evenodd; clip-rule:evenodd" xmlns:xlink="http://www.w3.org/1999/xlink">
<g><path style="opacity:1" fill="#55a2de" d="M 232.5,-0.5 C 247.833,-0.5 263.167,-0.5 278.5,-0.5C 368.144,10.3879 435.644,54.7213 481,132.5C 497.695,163.971 507.861,197.304 511.5,232.5C 511.5,247.833 511.5,263.167 511.5,278.5C 500.612,368.144 456.279,435.644 378.5,481C 347.029,497.695 313.696,507.861 278.5,511.5C 263.167,511.5 247.833,511.5 232.5,511.5C 142.856,500.612 75.3562,456.279 30,378.5C 13.3053,347.029 3.1386,313.696 -0.5,278.5C -0.5,263.167 -0.5,247.833 -0.5,232.5C 10.3875,142.857 54.7208,75.3573 132.5,30C 163.971,13.3053 197.304,3.1386 232.5,-0.5 Z"/></g>
<g><path style="opacity:1" fill="#fdfefe" d="M 277.5,67.5 C 278.08,69.7488 279.413,71.4154 281.5,72.5C 285.277,76.3821 287.777,81.0488 289,86.5C 289.667,170.833 289.667,255.167 289,339.5C 286.933,354.9 278.433,364.733 263.5,369C 241.177,371.761 227.343,362.261 222,340.5C 221.172,255.126 221.339,169.793 222.5,84.5C 224.104,83.713 224.771,82.3797 224.5,80.5C 232.037,64.5593 244.704,57.726 262.5,60C 268.083,61.4636 273.083,63.9636 277.5,67.5 Z"/></g>
<g><path style="opacity:1" fill="#c3d0e5" d="M 277.5,67.5 C 279.587,68.5846 280.92,70.2512 281.5,72.5C 279.413,71.4154 278.08,69.7488 277.5,67.5 Z"/></g>
<g><path style="opacity:1" fill="#b5c2db" d="M 224.5,80.5 C 224.771,82.3797 224.104,83.713 222.5,84.5C 222.66,82.847 223.326,81.5137 224.5,80.5 Z"/></g>
<g><path style="opacity:1" fill="#fdfdfe" d="M 278.5,390.5 C 279.419,393.089 281.086,395.089 283.5,396.5C 286.661,399.475 288.828,403.142 290,407.5C 293.922,429.168 285.755,444.001 265.5,452C 243.42,456.046 228.586,447.546 221,426.5C 217.343,406.309 224.843,392.143 243.5,384C 256.34,380.362 268.006,382.529 278.5,390.5 Z"/></g>
<g><path style="opacity:1" fill="#c7d5e8" d="M 278.5,390.5 C 280.914,391.911 282.581,393.911 283.5,396.5C 281.086,395.089 279.419,393.089 278.5,390.5 Z"/></g>
</svg>
