<?xml version="1.0" encoding="UTF-8"?>
<!DOCTYPE svg PUBLIC "-//W3C//DTD SVG 1.1//EN" "http://www.w3.org/Graphics/SVG/1.1/DTD/svg11.dtd">
<svg xmlns="http://www.w3.org/2000/svg" version="1.1" width="512px" height="512px" style="shape-rendering:geometricPrecision; text-rendering:geometricPrecision; image-rendering:optimizeQuality; fill-rule:evenodd; clip-rule:evenodd" xmlns:xlink="http://www.w3.org/1999/xlink">
<g><path style="opacity:0.963" fill="#000000" d="M 205.5,63.5 C 271.568,59.2875 323.068,84.2875 360,138.5C 386.465,184.444 390.798,232.444 373,282.5C 366.661,297.647 358.494,311.647 348.5,324.5C 380.486,356.986 412.653,389.32 445,421.5C 449.236,430.222 448.069,438.055 441.5,445C 434.833,448.333 428.167,448.333 421.5,445C 389.32,412.653 356.986,380.486 324.5,348.5C 273.792,386.291 218.792,393.791 159.5,371C 104.759,344.9 72.9253,301.733 64,241.5C 59.3756,172.913 85.8756,120.413 143.5,84C 163.065,73.4224 183.732,66.5891 205.5,63.5 Z M 222.5,95.5 C 275.53,98.0656 314.364,122.732 339,169.5C 362.093,228.285 350.593,279.118 304.5,322C 262.772,353.485 217.772,359.151 169.5,339C 114.676,309.524 90.8424,263.691 98,201.5C 106.742,158.762 130.575,127.595 169.5,108C 186.506,100.437 204.173,96.2701 222.5,95.5 Z"/></g>
</svg>
