<?xml version="1.0" standalone="no"?>
<!DOCTYPE svg PUBLIC "-//W3C//DTD SVG 20010904//EN"
 "http://www.w3.org/TR/2001/REC-SVG-20010904/DTD/svg10.dtd">
<svg version="1.0" xmlns="http://www.w3.org/2000/svg"
 width="512.000000pt" height="512.000000pt" viewBox="0 0 512.000000 512.000000"
 preserveAspectRatio="xMidYMid meet">

<g transform="translate(0.000000,512.000000) scale(0.100000,-0.100000)"
fill="#000000" stroke="none">
<path d="M134 4910 c-12 -5 -29 -19 -38 -32 -15 -20 -16 -198 -16 -1980 0
-1413 3 -1964 11 -1981 6 -14 22 -30 36 -36 17 -8 405 -11 1373 -11 l1348 0
45 -78 c66 -113 128 -192 222 -279 346 -323 858 -400 1277 -192 507 250 757
811 601 1349 -107 371 -405 671 -777 781 l-91 27 -5 1203 c-3 662 -6 1205 -8
1207 -1 2 -18 10 -37 18 -30 12 -302 14 -1977 13 -1069 0 -1953 -4 -1964 -9z
m724 -1432 l2 -1278 -310 0 -310 0 0 1280 0 1280 308 -2 307 -3 3 -1277z m772
682 l0 -600 -305 0 -305 0 0 600 0 600 305 0 305 0 0 -600z m780 -680 l0
-1280 -310 0 -310 0 0 1273 c0 701 3 1277 7 1280 3 4 143 7 310 7 l303 0 0
-1280z m778 678 l2 -598 -310 0 -310 0 0 600 0 600 308 -2 307 -3 3 -597z
m772 -526 l0 -1129 -112 -7 c-169 -10 -329 -50 -456 -115 l-42 -21 0 1200 0
1200 305 0 305 0 0 -1128z m-2330 -832 l0 -600 -305 0 -305 0 0 600 0 600 305
0 305 0 0 -600z m1558 26 l2 -569 -32 -28 -33 -28 -277 -1 -278 0 0 600 0 600
308 -2 307 -3 3 -569z m907 -510 c204 -44 370 -138 516 -294 85 -89 121 -142
175 -256 179 -379 93 -836 -213 -1127 -253 -240 -606 -329 -943 -239 -282 76
-546 313 -650 581 -58 151 -65 190 -65 369 0 141 3 177 23 250 45 167 165 369
280 471 171 151 344 230 577 263 55 8 229 -3 300 -18z m-2075 -781 l0 -505
-890 0 -890 0 0 505 0 505 890 0 890 0 0 -505z m950 499 c0 -3 -19 -32 -41
-66 -23 -33 -54 -89 -70 -124 l-29 -64 -186 0 c-183 0 -185 0 -209 -25 -16
-15 -25 -36 -25 -55 0 -19 9 -40 25 -55 24 -24 28 -25 183 -25 l160 0 -8 -37
c-4 -21 -11 -59 -14 -85 l-7 -47 -150 -3 c-145 -3 -152 -4 -170 -27 -26 -32
-24 -77 6 -106 23 -24 28 -25 170 -25 l145 0 0 -32 c0 -18 9 -76 20 -128 11
-52 20 -96 20 -97 0 -2 -137 -3 -305 -3 l-305 0 0 505 0 505 395 0 c217 0 395
-2 395 -6z"/>
<path d="M3747 2199 c-10 -6 -32 -40 -47 -75 -16 -35 -35 -64 -42 -64 -7 0
-37 -11 -66 -25 l-53 -24 -56 25 c-37 16 -66 23 -84 19 -15 -4 -64 -44 -118
-99 -102 -105 -107 -118 -70 -200 l20 -47 -29 -72 c-29 -68 -33 -73 -79 -90
-83 -31 -88 -40 -91 -180 -4 -157 1 -170 81 -206 62 -28 63 -29 91 -99 l27
-71 -20 -47 c-36 -81 -31 -96 62 -191 45 -47 91 -90 102 -95 29 -16 68 -12
115 12 l41 21 71 -28 c69 -27 71 -29 98 -90 16 -34 38 -66 49 -72 26 -15 253
-14 285 0 16 8 34 32 51 73 26 61 26 61 98 88 l71 27 44 -19 c83 -37 97 -32
205 79 61 61 97 106 97 119 0 12 -11 46 -24 75 -21 47 -22 57 -10 78 7 13 20
45 29 70 15 44 20 48 75 68 33 12 64 30 70 41 5 10 10 80 10 154 0 156 -3 162
-89 193 -46 16 -52 22 -66 63 -9 25 -22 56 -29 69 -12 22 -11 32 11 83 18 40
23 66 18 85 -8 33 -156 187 -196 204 -26 10 -38 9 -90 -14 l-59 -26 -58 25
c-86 38 -86 38 -105 90 -29 80 -39 84 -191 84 -74 0 -139 -5 -149 -11z m218
-201 c19 -48 25 -54 70 -72 28 -10 83 -34 124 -53 40 -18 79 -33 86 -33 7 0
34 9 60 21 l48 21 35 -35 35 -35 -22 -56 -23 -55 41 -89 c23 -49 41 -94 41
-101 0 -35 32 -71 80 -88 l50 -18 0 -51 0 -52 -57 -28 c-51 -26 -59 -34 -70
-71 -6 -23 -28 -78 -47 -122 l-36 -79 21 -57 21 -57 -34 -35 -34 -34 -45 20
c-59 27 -77 26 -144 -9 -31 -17 -82 -37 -112 -46 -57 -17 -85 -47 -98 -106 -6
-26 -10 -28 -59 -28 l-52 0 -23 54 c-20 50 -27 57 -69 72 -26 9 -80 32 -121
50 -85 40 -94 40 -152 14 l-44 -19 -37 36 -36 35 19 42 c26 57 24 72 -16 159
-19 42 -35 81 -35 87 0 7 -7 27 -16 45 -12 25 -29 39 -70 55 l-55 23 3 50 c3
48 4 50 45 66 55 21 80 46 87 85 3 17 22 65 41 105 40 84 42 107 16 160 l-20
38 38 37 37 37 45 -20 c57 -27 74 -26 124 3 22 13 70 34 105 46 79 26 93 38
115 95 l17 45 51 0 52 0 20 -52z"/>
<path d="M3781 1784 c-150 -40 -266 -152 -316 -302 -13 -41 -16 -77 -13 -152
3 -88 7 -104 41 -173 87 -176 283 -281 467 -249 266 47 431 300 364 557 -61
235 -310 382 -543 319z m231 -171 c173 -77 223 -311 95 -451 -92 -99 -223
-125 -340 -69 -102 50 -157 143 -157 264 0 125 71 222 197 269 50 19 146 12
205 -13z"/>
<path d="M495 1755 c-16 -15 -25 -36 -25 -55 0 -19 9 -40 25 -55 l24 -25 611
0 611 0 24 25 c35 34 34 86 -1 114 -26 21 -35 21 -636 21 l-609 0 -24 -25z"/>
<path d="M495 1425 c-16 -15 -25 -36 -25 -55 0 -19 9 -40 25 -55 l24 -25 609
0 c601 0 610 0 636 21 35 28 36 80 1 114 l-24 25 -611 0 -611 0 -24 -25z"/>
</g>
</svg>
